<?xml version="1.0" standalone="yes"?>
<svg xmlns="http://www.w3.org/2000/svg" width="404" height="427">
<path style="fill:#ffffff; stroke:none;" d="M0 0L0 427L404 427L404 0L0 0z"/>
<path style="fill:#e1527c; stroke:none;" d="M130.667 17.3333C130.222 17.7779 131.278 17.7221 131.333 17.6667C131.778 17.2224 130.722 17.2777 130.667 17.3333z"/>
<path style="fill:#f48130; stroke:none;" d="M266 17L267 18L266 17z"/>
<path style="fill:#fbd0af; stroke:none;" d="M267 17L268 18L267 17z"/>
<path style="fill:#e24f79; stroke:none;" d="M128 18L129 19L128 18z"/>
<path style="fill:#d91c52; stroke:none;" d="M153 349C156.169 353.183 154.568 358.082 154.455 363C154.386 366.022 155.172 368.97 154.787 372C153.661 380.853 150.002 389.344 148 398C155.37 394.624 160.712 388.072 165.866 382C188.305 355.562 190.785 316.69 183.576 284C177.82 257.902 165.652 234.231 154.861 210C137.108 170.136 119.876 129.14 117.961 85C117.665 78.1916 116.457 70.7783 117.188 64C118.938 47.7722 124.807 32.8738 131 18C96.5069 26.1929 74.256 66.1204 70.9537 99C64.4066 164.186 104.074 225.459 130.781 282C138.115 297.527 145.079 313.311 149.37 330C150.915 336.006 153.856 342.812 153 349z"/>
<path style="fill:#f9b483; stroke:none;" d="M266 18L267 19L266 18z"/>
<path style="fill:#f57921; stroke:none;" d="M267 18C269.063 25.1617 272.754 31.8189 274.975 39C279.043 52.1586 281.322 67.26 280.985 81C280.822 87.6869 279.153 94.374 278.282 101C272.844 142.352 255.969 180.236 239.139 218C230.781 236.754 221.601 255.093 216.152 275C204.242 318.51 209.095 371.942 250 399C246.888 385.549 242.423 373.074 243.039 359C244.303 330.137 257.108 302.639 269.219 277C290.646 231.637 318.779 185.446 325.87 135C331.094 97.8352 322.551 58.2669 292.999 33.0038C285.514 26.6048 276.569 20.6183 267 18z"/>
<path style="fill:#f9b584; stroke:none;" d="M269 18L270 19L269 18z"/>
<path style="fill:#f1adc1; stroke:none;" d="M125 19L126 20L125 19z"/>
<path style="fill:#ea89a5; stroke:none;" d="M130 19L131 20L130 19z"/>
<path style="fill:#f6a164; stroke:none;" d="M271 19L272 20L271 19z"/>
<path style="fill:#ee9eb5; stroke:none;" d="M123 20L124 21L123 20z"/>
<path style="fill:#facdac; stroke:none;" d="M267 20L268 21L267 20z"/>
<path style="fill:#f1acc1; stroke:none;" d="M121 21L122 22L121 21z"/>
<path style="fill:#eda1b7; stroke:none;" d="M129 21L130 22L129 21z"/>
<path style="fill:#f5c5d3; stroke:none;" d="M119 22L120 23L119 22z"/>
<path style="fill:#f7a76b; stroke:none;" d="M277 22L278 23L277 22z"/>
<path style="fill:#efa3ba; stroke:none;" d="M128 23L129 24L128 23z"/>
<path style="fill:#f9be93; stroke:none;" d="M279 23L280 24L279 23z"/>
<path style="fill:#e87a9a; stroke:none;" d="M116 24L117 25L116 24z"/>
<path style="fill:#fbd1b3; stroke:none;" d="M269 24L270 25L269 24z"/>
<path style="fill:#ed93ac; stroke:none;" d="M127 25L128 26L127 25z"/>
<path style="fill:#f8a265; stroke:none;" d="M282 25L283 26L282 25z"/>
<path style="fill:#e6678a; stroke:none;" d="M113 26L114 27L113 26z"/>
<path style="fill:#fac59f; stroke:none;" d="M270 26L271 27L270 26z"/>
<path style="fill:#fbd4b6; stroke:none;" d="M284 26L285 27L284 26z"/>
<path style="fill:#e66a8d; stroke:none;" d="M126 27L127 28L126 27z"/>
<path style="fill:#f7a163; stroke:none;" d="M285 27L286 28L285 27z"/>
<path style="fill:#e87a99; stroke:none;" d="M110 28L111 29L110 28z"/>
<path style="fill:#f8a76e; stroke:none;" d="M271 28L272 29L271 28z"/>
<path style="fill:#f8bc8f; stroke:none;" d="M288 29L289 30L288 29z"/>
<path style="fill:#f1aabe; stroke:none;" d="M125 30L126 31L125 30z"/>
<path style="fill:#ed96ae; stroke:none;" d="M106 31L107 32L106 31z"/>
<path style="fill:#fac69f; stroke:none;" d="M272 31L273 32L272 31z"/>
<path style="fill:#e36286; stroke:none;" d="M105 32L106 33L105 32z"/>
<path style="fill:#e35b80; stroke:none;" d="M124 32L125 33L124 32z"/>
<path style="fill:#fcd9c1; stroke:none;" d="M292 32L293 33L292 32z"/>
<path style="fill:#f3bbcc; stroke:none;" d="M124 33L125 34L124 33z"/>
<path style="fill:#fac7a5; stroke:none;" d="M293 33L294 34L293 33z"/>
<path style="fill:#fac9a8; stroke:none;" d="M273 34L274 35L273 34z"/>
<path style="fill:#f8b17c; stroke:none;" d="M294 34L295 35L294 34z"/>
<path style="fill:#e36083; stroke:none;" d="M123 35L124 36L123 35z"/>
<path style="fill:#f6a264; stroke:none;" d="M295 35L296 36L295 35z"/>
<path style="fill:#f4b8c9; stroke:none;" d="M123 36L124 37L123 36z"/>
<path style="fill:#f9be94; stroke:none;" d="M274 37L275 38L274 37z"/>
<path style="fill:#ec8ea6; stroke:none;" d="M122 39L123 40L122 39z"/>
<path style="fill:#f7a466; stroke:none;" d="M275 40L276 41L275 40z"/>
<path style="fill:#f7a162; stroke:none;" d="M300 40L301 41L300 40z"/>
<path style="fill:#f8b07b; stroke:none;" d="M301 41L302 42L301 41z"/>
<path style="fill:#e15079; stroke:none;" d="M121 42L122 43L121 42z"/>
<path style="fill:#fac59f; stroke:none;" d="M302 42L303 43L302 42z"/>
<path style="fill:#e2527b; stroke:none;" d="M94 43L95 44L94 43z"/>
<path style="fill:#ea8ba6; stroke:none;" d="M121 43L122 44L121 43z"/>
<path style="fill:#fcd8bf; stroke:none;" d="M303 43L304 44L303 43z"/>
<path style="fill:#e87999; stroke:none;" d="M93 44L94 45L93 44z"/>
<path style="fill:#f9bf94; stroke:none;" d="M276.333 44.6667C276.278 44.7222 276.222 45.7778 276.667 45.3333C276.722 45.2778 276.778 44.2222 276.333 44.6667z"/>
<path style="fill:#f1afc2; stroke:none;" d="M92 45L93 46L92 45z"/>
<path style="fill:#ee9cb3; stroke:none;" d="M120.333 47.6667C120.278 47.7223 120.222 48.7777 120.667 48.3333C120.722 48.2779 120.778 47.2221 120.333 47.6667z"/>
<path style="fill:#f8b889; stroke:none;" d="M306 47L307 48L306 47z"/>
<path style="fill:#e2547b; stroke:none;" d="M90 48L91 49L90 48z"/>
<path style="fill:#efa7bc; stroke:none;" d="M89 49L90 50L89 49z"/>
<path style="fill:#f9bb8f; stroke:none;" d="M277.333 49.6667C277.278 49.7222 277.222 50.7778 277.667 50.3333C277.722 50.2778 277.778 49.2222 277.333 49.6667z"/>
<path style="fill:#f79c5b; stroke:none;" d="M308 50L309 51L308 50z"/>
<path style="fill:#facead; stroke:none;" d="M309 51L310 52L309 51z"/>
<path style="fill:#ec8ba7; stroke:none;" d="M87 52L88 53L87 52z"/>
<path style="fill:#ec94ad; stroke:none;" d="M119.333 53.6667C119.278 53.7223 119.222 54.7777 119.667 54.3333C119.722 54.2779 119.778 53.2222 119.333 53.6667z"/>
<path style="fill:#f69048; stroke:none;" d="M278.333 54.6667C278.278 54.7223 278.222 55.7777 278.667 55.3333C278.722 55.2778 278.778 54.2222 278.333 54.6667z"/>
<path style="fill:#fcd3b5; stroke:none;" d="M311 54L312 55L311 54z"/>
<path style="fill:#efa7bb; stroke:none;" d="M85 55L86 56L85 55z"/>
<path style="fill:#fac298; stroke:none;" d="M278 56L278 59C278.696 57.4463 278.696 57.5536 278 56z"/>
<path style="fill:#f7a86e; stroke:none;" d="M312 56L313 57L312 56z"/>
<path style="fill:#e66b8e; stroke:none;" d="M84 57L85 58L84 57z"/>
<path style="fill:#dd3565; stroke:none;" d="M118 58L118 61C118.696 59.4463 118.696 59.5537 118 58z"/>
<path style="fill:#d4043f; stroke:none;" d="M117 61L117 71C118.346 67.7929 118.346 64.207 117 61z"/>
<path style="fill:#efa4b9; stroke:none;" d="M118 61L118 65C118.71 63.2405 118.71 62.7595 118 61z"/>
<path style="fill:#facaa8; stroke:none;" d="M315 61L316 62L315 61z"/>
<path style="fill:#f4c2d1; stroke:none;" d="M81 62L82 63L81 62z"/>
<path style="fill:#f48e43; stroke:none;" d="M279 63L279 66C279.696 64.4463 279.696 64.5537 279 63z"/>
<path style="fill:#facba7; stroke:none;" d="M316 63L317 64L316 63z"/>
<path style="fill:#f4c2d0; stroke:none;" d="M80 64L81 65L80 64z"/>
<path style="fill:#fbd0b1; stroke:none;" d="M317 65L318 66L317 65z"/>
<path style="fill:#f9c098; stroke:none;" d="M279 66L279 70C279.71 68.2405 279.71 67.7595 279 66z"/>
<path style="fill:#f36e0f; stroke:none;" d="M280 67L280 87C282.087 82.0273 282.087 71.9727 280 67z"/>
<path style="fill:#e67293; stroke:none;" d="M78 69L79 70L78 69z"/>
<path style="fill:#fbd0b1; stroke:none;" d="M279 70L279 76C279.951 73.7147 279.951 72.2852 279 70z"/>
<path style="fill:#f8ac77; stroke:none;" d="M319 70L320 71L319 70z"/>
<path style="fill:#f0a7ba; stroke:none;" d="M77 71L78 72L77 71z"/>
<path style="fill:#fbceae; stroke:none;" d="M320 72L321 73L320 72z"/>
<path style="fill:#e97b9a; stroke:none;" d="M76 74L77 75L76 74z"/>
<path style="fill:#dd3968; stroke:none;" d="M117 75L117 81C117.951 78.7147 117.951 77.2853 117 75z"/>
<path style="fill:#f9bb8e; stroke:none;" d="M321 75L322 76L321 75z"/>
<path style="fill:#feeadc; stroke:none;" d="M279 76L279 79C279.696 77.4463 279.696 77.5537 279 76z"/>
<path style="fill:#e77092; stroke:none;" d="M75 77L76 78L75 77z"/>
<path style="fill:#fabc90; stroke:none;" d="M322 78L323 79L322 78z"/>
<path style="fill:#f9d0b1; stroke:none;" d="M279 79L279 86C280.059 83.4657 280.059 81.5343 279 79z"/>
<path style="fill:#e9829e; stroke:none;" d="M74 80L75 81L74 80z"/>
<path style="fill:#fbc8a7; stroke:none;" d="M323 81L324 82L323 81z"/>
<path style="fill:#f0a8bc; stroke:none;" d="M73 83L74 84L73 83z"/>
<path style="fill:#e56387; stroke:none;" d="M73 84L74 85L73 84z"/>
<path style="fill:#f9b98b; stroke:none;" d="M324 85L325 86L324 85z"/>
<path style="fill:#f9b789; stroke:none;" d="M279 86L279 89C279.696 87.4463 279.696 87.5537 279 86z"/>
<path style="fill:#f0aabe; stroke:none;" d="M72 87L73 88L72 87z"/>
<path style="fill:#e76e90; stroke:none;" d="M72 88L73 89L72 88z"/>
<path style="fill:#f4c1cf; stroke:none;" d="M118.333 89.6667C118.278 89.7223 118.222 90.7777 118.667 90.3333C118.722 90.2779 118.778 89.2221 118.333 89.6667z"/>
<path style="fill:#f58637; stroke:none;" d="M279 89L279 93C279.71 91.2404 279.71 90.7595 279 89z"/>
<path style="fill:#f8a76d; stroke:none;" d="M325.333 89.6667C325.278 89.7222 325.222 90.7778 325.667 90.3333C325.722 90.2778 325.778 89.2222 325.333 89.6667z"/>
<path style="fill:#efa7ba; stroke:none;" d="M71.3333 91.6667C71.2777 91.7223 71.2223 92.7777 71.6667 92.3333C71.7222 92.2779 71.7778 91.2221 71.3333 91.6667z"/>
<path style="fill:#ed99b2; stroke:none;" d="M118 91L118 94C118.696 92.4463 118.696 92.5537 118 91z"/>
<path style="fill:#e04974; stroke:none;" d="M71.3333 93.6667C71.2777 93.7223 71.2223 94.7777 71.6667 94.3333C71.7222 94.2779 71.7778 93.2221 71.3333 93.6667z"/>
<path style="fill:#de406e; stroke:none;" d="M118 94L118 97C118.696 95.4463 118.696 95.5537 118 94z"/>
<path style="fill:#f9ba8d; stroke:none;" d="M326.333 94.6667C326.278 94.7222 326.222 95.7778 326.667 95.3333C326.722 95.2778 326.778 94.2222 326.333 94.6667z"/>
<path style="fill:#f58f45; stroke:none;" d="M326.333 96.6667C326.278 96.7223 326.222 97.7777 326.667 97.3333C326.722 97.2778 326.778 96.2222 326.333 96.6667z"/>
<path style="fill:#fac29a; stroke:none;" d="M278 97L278 100C278.696 98.4463 278.696 98.5536 278 97z"/>
<path style="fill:#ef9db5; stroke:none;" d="M70.3333 98.6667C70.2777 98.7223 70.2222 99.7778 70.6667 99.3333C70.7222 99.2778 70.7778 98.2222 70.3333 98.6667z"/>
<path style="fill:#e15079; stroke:none;" d="M70 100L70 103C70.6961 101.446 70.6961 101.554 70 100z"/>
<path style="fill:#ea8aa5; stroke:none;" d="M119 101L119 104C119.696 102.446 119.696 102.554 119 101z"/>
<path style="fill:#facdab; stroke:none;" d="M327 101L327 104C327.696 102.446 327.696 102.554 327 101z"/>
<path style="fill:#f6ad79; stroke:none;" d="M327.333 104.667C327.278 104.722 327.222 105.778 327.667 105.333C327.722 105.278 327.778 104.222 327.333 104.667z"/>
<path style="fill:#d50641; stroke:none;" d="M70 105L70 122C71.8826 117.514 71.8826 109.486 70 105z"/>
<path style="fill:#f8ba8c; stroke:none;" d="M277 105L277 108C277.696 106.446 277.696 106.554 277 105z"/>
<path style="fill:#f68637; stroke:none;" d="M327 106L327 121C328.74 116.852 328.74 110.148 327 106z"/>
<path style="fill:#e77a99; stroke:none;" d="M120 108L120 111C120.696 109.446 120.696 109.554 120 108z"/>
<path style="fill:#f7d2dc; stroke:none;" d="M69 111L69 116C69.8299 113.97 69.8299 113.03 69 111z"/>
<path style="fill:#f6a365; stroke:none;" d="M276.333 112.667C276.278 112.722 276.222 113.778 276.667 113.333C276.722 113.278 276.778 112.222 276.333 112.667z"/>
<path style="fill:#e6698d; stroke:none;" d="M121.333 114.667C121.278 114.722 121.222 115.778 121.667 115.333C121.722 115.278 121.778 114.222 121.333 114.667z"/>
<path style="fill:#f7a568; stroke:none;" d="M275.333 117.667C275.278 117.722 275.222 118.778 275.667 118.333C275.722 118.278 275.778 117.222 275.333 117.667z"/>
<path style="fill:#efa7bb; stroke:none;" d="M122 119L123 120L122 119z"/>
<path style="fill:#f9be94; stroke:none;" d="M274 121L274 124C274.696 122.446 274.696 122.554 274 121z"/>
<path style="fill:#fbcaa7; stroke:none;" d="M327 121L327 126C327.83 123.969 327.83 123.031 327 121z"/>
<path style="fill:#de406d; stroke:none;" d="M70 123L70 127C70.7102 125.241 70.7102 124.759 70 123z"/>
<path style="fill:#f4c2d1; stroke:none;" d="M123 123L124 124L123 123z"/>
<path style="fill:#dd3564; stroke:none;" d="M53 124L54 125L53 124z"/>
<path style="fill:#e04a74; stroke:none;" d="M123.333 124.667C123.278 124.722 123.222 125.778 123.667 125.333C123.722 125.278 123.778 124.222 123.333 124.667z"/>
<path style="fill:#f59148; stroke:none;" d="M343 124L343 127C343.696 125.446 343.696 125.554 343 124z"/>
<path style="fill:#fcd9c1; stroke:none;" d="M344 124L345 125L344 124z"/>
<path style="fill:#ec94ad; stroke:none;" d="M52 125L53 126L52 125z"/>
<path style="fill:#d91c52; stroke:none;" d="M53 125C31.6289 153.029 36.6213 191.625 49.7191 222C64.0033 255.127 87.1572 284.335 107.344 314C122.271 335.935 136.839 359.842 139 387C143.351 383.727 142.147 374.979 142.039 370C141.67 352.856 138.823 338.311 133.333 322C125.329 298.224 112.717 276.2 101.258 254C91.3374 234.778 82.2411 215.006 74.0108 195C67.9831 180.348 62.7179 165.378 58.8735 150C56.9632 142.359 57.008 131.689 53 125z"/>
<path style="fill:#ee98b1; stroke:none;" d="M54 125L54 128C54.6961 126.446 54.6961 126.554 54 125z"/>
<path style="fill:#f57921; stroke:none;" d="M344 125C340.112 140.026 337.703 155.129 332.971 170C325.907 192.204 315.875 214.057 305.742 235C287.968 271.733 262.593 308.889 256.296 350C254.311 362.963 255.358 378.074 257 391C260.233 384.919 259.974 376.686 261.735 370C264.977 357.687 270.124 345.951 276.603 335C295.695 302.73 320.228 273.917 338.306 241C347.225 224.758 355.43 207.55 358 189C359.414 178.794 358.491 169.181 357.285 159C355.872 147.06 353.333 133.616 344 125z"/>
<path style="fill:#facaa8; stroke:none;" d="M273 126L274 127L273 126z"/>
<path style="fill:#f0a7bb; stroke:none;" d="M70 127L70 130C70.6961 128.446 70.6961 128.554 70 127z"/>
<path style="fill:#d5033d; stroke:none;" d="M71 127L71 132C71.8299 129.97 71.8299 129.03 71 127z"/>
<path style="fill:#fabe95; stroke:none;" d="M346 127L347 128L346 127z"/>
<path style="fill:#e87193; stroke:none;" d="M50 128L51 129L50 128z"/>
<path style="fill:#ed94ad; stroke:none;" d="M124 128L125 129L124 128z"/>
<path style="fill:#fac6a0; stroke:none;" d="M342 129L342 132C342.696 130.446 342.696 130.554 342 129z"/>
<path style="fill:#f9ccab; stroke:none;" d="M272 130L273 131L272 130z"/>
<path style="fill:#f79f5f; stroke:none;" d="M326.333 130.667C326.278 130.722 326.222 131.778 326.667 131.333C326.722 131.278 326.778 130.222 326.333 130.667z"/>
<path style="fill:#fbc8a4; stroke:none;" d="M348 130L349 131L348 130z"/>
<path style="fill:#ed98b0; stroke:none;" d="M48 131L49 132L48 131z"/>
<path style="fill:#ec91aa; stroke:none;" d="M55 132L55 135C55.6961 133.446 55.6961 133.554 55 132z"/>
<path style="fill:#eb8da6; stroke:none;" d="M125 132L126 133L125 132z"/>
<path style="fill:#fcd1b3; stroke:none;" d="M326.333 132.667C326.278 132.722 326.222 133.778 326.667 133.333C326.722 133.278 326.778 132.222 326.333 132.667z"/>
<path style="fill:#f7a366; stroke:none;" d="M349 132L350 133L349 132z"/>
<path style="fill:#e76b8d; stroke:none;" d="M47 133L48 134L47 133z"/>
<path style="fill:#e36185; stroke:none;" d="M71.3333 133.667C71.2777 133.722 71.2223 134.778 71.6667 134.333C71.7221 134.278 71.7779 133.222 71.3333 133.667z"/>
<path style="fill:#fac095; stroke:none;" d="M271 134L272 135L271 134z"/>
<path style="fill:#e46285; stroke:none;" d="M46 135L47 136L46 135z"/>
<path style="fill:#f4bdcd; stroke:none;" d="M71.3333 135.667C71.2777 135.722 71.2223 136.778 71.6667 136.333C71.7222 136.278 71.7778 135.222 71.3333 135.667z"/>
<path style="fill:#f5c1d0; stroke:none;" d="M126 135L127 136L126 135z"/>
<path style="fill:#e67494; stroke:none;" d="M126 136L127 137L126 136z"/>
<path style="fill:#f8ac76; stroke:none;" d="M341.333 136.667C341.278 136.722 341.222 137.778 341.667 137.333C341.722 137.278 341.778 136.222 341.333 136.667z"/>
<path style="fill:#e66e90; stroke:none;" d="M45 137L46 138L45 137z"/>
<path style="fill:#f7ab72; stroke:none;" d="M325.333 137.667C325.278 137.722 325.222 138.778 325.667 138.333C325.722 138.278 325.778 137.222 325.333 137.667z"/>
<path style="fill:#e87b99; stroke:none;" d="M56.3333 138.667C56.2778 138.722 56.2222 139.778 56.6667 139.333C56.7223 139.278 56.7778 138.222 56.3333 138.667z"/>
<path style="fill:#f9ae79; stroke:none;" d="M270 138L271 139L270 138z"/>
<path style="fill:#f6a469; stroke:none;" d="M352 138L353 139L352 138z"/>
<path style="fill:#eb86a2; stroke:none;" d="M44 139L45 140L44 139z"/>
<path style="fill:#ed97b0; stroke:none;" d="M127 139L128 140L127 139z"/>
<path style="fill:#fce8d7; stroke:none;" d="M325.333 139.667C325.278 139.722 325.222 140.778 325.667 140.333C325.722 140.278 325.778 139.222 325.333 139.667z"/>
<path style="fill:#ee9eb4; stroke:none;" d="M72 140L72 143C72.6961 141.446 72.6961 141.554 72 140z"/>
<path style="fill:#f9b888; stroke:none;" d="M353 140L354 141L353 140z"/>
<path style="fill:#f5bdcc; stroke:none;" d="M43 141L44 142L43 141z"/>
<path style="fill:#f9c29b; stroke:none;" d="M269 141L270 142L269 141z"/>
<path style="fill:#f7af7b; stroke:none;" d="M340.333 141.667C340.278 141.722 340.222 142.778 340.667 142.333C340.722 142.278 340.778 141.222 340.333 141.667z"/>
<path style="fill:#f3b9c9; stroke:none;" d="M128 142L129 143L128 142z"/>
<path style="fill:#e87193; stroke:none;" d="M57.3333 143.667C57.2777 143.722 57.2223 144.778 57.6667 144.333C57.7223 144.278 57.7778 143.222 57.3333 143.667z"/>
<path style="fill:#e55f86; stroke:none;" d="M128 143L129 144L128 143z"/>
<path style="fill:#facaa8; stroke:none;" d="M324.333 143.667C324.278 143.722 324.222 144.778 324.667 144.333C324.722 144.278 324.778 143.222 324.333 143.667z"/>
<path style="fill:#f89c5c; stroke:none;" d="M354 143L355 144L354 143z"/>
<path style="fill:#ed97b0; stroke:none;" d="M42 144L43 145L42 144z"/>
<path style="fill:#fdd0b3; stroke:none;" d="M268 144L269 145L268 144z"/>
<path style="fill:#efa3b9; stroke:none;" d="M73.3333 145.667C73.2777 145.722 73.2223 146.778 73.6667 146.333C73.7221 146.278 73.7778 145.222 73.3333 145.667z"/>
<path style="fill:#f79d5e; stroke:none;" d="M268 145L269 146L268 145z"/>
<path style="fill:#faceae; stroke:none;" d="M355 145L356 146L355 145z"/>
<path style="fill:#e77395; stroke:none;" d="M129 146L130 147L129 146z"/>
<path style="fill:#f69855; stroke:none;" d="M339.333 146.667C339.278 146.722 339.222 147.778 339.667 147.333C339.722 147.278 339.778 146.222 339.333 146.667z"/>
<path style="fill:#f69956; stroke:none;" d="M355 146L356 147L355 146z"/>
<path style="fill:#ef9eb4; stroke:none;" d="M41 147L42 148L41 147z"/>
<path style="fill:#f4c4d2; stroke:none;" d="M58 147L59 148L58 147z"/>
<path style="fill:#e9819e; stroke:none;" d="M58 148L59 149L58 148z"/>
<path style="fill:#f7a265; stroke:none;" d="M267 148L268 149L267 148z"/>
<path style="fill:#f8b584; stroke:none;" d="M323 148L324 149L323 148z"/>
<path style="fill:#e87e9b; stroke:none;" d="M130 149L131 150L130 149z"/>
<path style="fill:#f7ab73; stroke:none;" d="M356 149L357 150L356 149z"/>
<path style="fill:#ec92ac; stroke:none;" d="M74 150L75 151L74 150z"/>
<path style="fill:#f8c19a; stroke:none;" d="M338 150L339 151L338 150z"/>
<path style="fill:#e97b9a; stroke:none;" d="M40 151L41 152L40 151z"/>
<path style="fill:#f7a66b; stroke:none;" d="M266 151L267 152L266 151z"/>
<path style="fill:#f89a57; stroke:none;" d="M338 151L339 152L338 151z"/>
<path style="fill:#e9819f; stroke:none;" d="M59 152L60 153L59 152z"/>
<path style="fill:#e87c9a; stroke:none;" d="M131 152L132 153L131 152z"/>
<path style="fill:#f8b380; stroke:none;" d="M322 152L323 153L322 152z"/>
<path style="fill:#fad3b5; stroke:none;" d="M357 152L358 153L357 152z"/>
<path style="fill:#f78a3d; stroke:none;" d="M357.333 153.667C357.278 153.722 357.222 154.778 357.667 154.333C357.722 154.278 357.778 153.222 357.333 153.667z"/>
<path style="fill:#ee99b1; stroke:none;" d="M75 154L76 155L75 154z"/>
<path style="fill:#f8a265; stroke:none;" d="M265 154L266 155L265 154z"/>
<path style="fill:#f8be94; stroke:none;" d="M337 154L338 155L337 154z"/>
<path style="fill:#f0a3ba; stroke:none;" d="M39 155L40 156L39 155z"/>
<path style="fill:#f2b9c9; stroke:none;" d="M60 155L61 156L60 155z"/>
<path style="fill:#ea7e9c; stroke:none;" d="M132 155L133 156L132 155z"/>
<path style="fill:#f36f10; stroke:none;" d="M357 155L358 171C359.982 166.278 359.39 159.496 357 155z"/>
<path style="fill:#df3f6d; stroke:none;" d="M39.3333 156.667C39.2778 156.722 39.2223 157.778 39.6667 157.333C39.7223 157.278 39.7778 156.222 39.3333 156.667z"/>
<path style="fill:#e4688c; stroke:none;" d="M60 156L61 157L60 156z"/>
<path style="fill:#fabb8d; stroke:none;" d="M321 156L322 157L321 156z"/>
<path style="fill:#e45d84; stroke:none;" d="M76 157L77 158L76 157z"/>
<path style="fill:#f69c58; stroke:none;" d="M264 157L265 158L264 157z"/>
<path style="fill:#fcd9c0; stroke:none;" d="M336 157L337 158L336 157z"/>
<path style="fill:#f8b27f; stroke:none;" d="M358.333 157.667C358.278 157.722 358.222 158.778 358.667 158.333C358.722 158.278 358.778 157.222 358.333 157.667z"/>
<path style="fill:#f3b3c4; stroke:none;" d="M76 158L77 159L76 158z"/>
<path style="fill:#e66d8f; stroke:none;" d="M133 158L134 159L133 158z"/>
<path style="fill:#f7ab74; stroke:none;" d="M336 158L337 159L336 158z"/>
<path style="fill:#ee99b1; stroke:none;" d="M61 159L62 160L61 159z"/>
<path style="fill:#fbcfb0; stroke:none;" d="M263 159L264 160L263 159z"/>
<path style="fill:#f89e60; stroke:none;" d="M320 159L321 160L320 159z"/>
<path style="fill:#f1aabe; stroke:none;" d="M38 160L38 163C38.6961 161.446 38.6961 161.554 38 160z"/>
<path style="fill:#f4bdcd; stroke:none;" d="M134 160L135 161L134 160z"/>
<path style="fill:#fad0b2; stroke:none;" d="M320 160L321 161L320 160z"/>
<path style="fill:#eb88a4; stroke:none;" d="M77 161L78 162L77 161z"/>
<path style="fill:#e2557c; stroke:none;" d="M134 161L135 162L134 161z"/>
<path style="fill:#fac198; stroke:none;" d="M335 161L336 162L335 161z"/>
<path style="fill:#f2b4c6; stroke:none;" d="M62 162L63 163L62 162z"/>
<path style="fill:#fbc19a; stroke:none;" d="M262 162L263 163L262 162z"/>
<path style="fill:#e14a75; stroke:none;" d="M38 163L38 166C38.6961 164.446 38.6961 164.554 38 163z"/>
<path style="fill:#e35d83; stroke:none;" d="M62 163L63 164L62 163z"/>
<path style="fill:#f0a2b9; stroke:none;" d="M135 163L136 164L135 163z"/>
<path style="fill:#fac098; stroke:none;" d="M319 163L320 164L319 163z"/>
<path style="fill:#e87494; stroke:none;" d="M78 164L79 165L78 164z"/>
<path style="fill:#f9cdac; stroke:none;" d="M334 164L335 165L334 164z"/>
<path style="fill:#f9ba8d; stroke:none;" d="M359 164L359 170C359.951 167.715 359.951 166.285 359 164z"/>
<path style="fill:#f9ad78; stroke:none;" d="M261 165L262 166L261 165z"/>
<path style="fill:#e66d8e; stroke:none;" d="M63 166L64 167L63 166z"/>
<path style="fill:#e984a1; stroke:none;" d="M136 166L137 167L136 166z"/>
<path style="fill:#f9b686; stroke:none;" d="M318 166L319 167L318 166z"/>
<path style="fill:#e36689; stroke:none;" d="M79 167L80 168L79 167z"/>
<path style="fill:#fbd8be; stroke:none;" d="M260 167L261 168L260 167z"/>
<path style="fill:#fcd8bf; stroke:none;" d="M333 167L334 168L333 167z"/>
<path style="fill:#d4033e; stroke:none;" d="M38 168L38 178C39.3457 174.793 39.3457 171.207 38 168z"/>
<path style="fill:#f4c0cf; stroke:none;" d="M79 168L80 169L79 168z"/>
<path style="fill:#f69957; stroke:none;" d="M260 168L261 169L260 168z"/>
<path style="fill:#f79e5f; stroke:none;" d="M333 168L334 169L333 168z"/>
<path style="fill:#e97797; stroke:none;" d="M64 169L65 170L64 169z"/>
<path style="fill:#e2587f; stroke:none;" d="M137 169L138 170L137 169z"/>
<path style="fill:#f9b281; stroke:none;" d="M317 169L318 170L317 169z"/>
<path style="fill:#e46186; stroke:none;" d="M80 170L81 171L80 170z"/>
<path style="fill:#f8be94; stroke:none;" d="M259 170L260 171L259 170z"/>
<path style="fill:#fbd6be; stroke:none;" d="M332 170L333 171L332 170z"/>
<path style="fill:#f69149; stroke:none;" d="M359 170L359 175C359.83 172.97 359.83 172.03 359 170z"/>
<path style="fill:#f4c3d1; stroke:none;" d="M80 171L81 172L80 171z"/>
<path style="fill:#ed98b0; stroke:none;" d="M138 171L139 172L138 171z"/>
<path style="fill:#f79e5e; stroke:none;" d="M332 171L333 172L332 171z"/>
<path style="fill:#e97797; stroke:none;" d="M65 172L66 173L65 172z"/>
<path style="fill:#f8b483; stroke:none;" d="M316 172L317 173L316 172z"/>
<path style="fill:#e66a8d; stroke:none;" d="M81 173L82 174L81 173z"/>
<path style="fill:#f7a264; stroke:none;" d="M258 173L259 174L258 173z"/>
<path style="fill:#fcd8c0; stroke:none;" d="M331 173L332 174L331 173z"/>
<path style="fill:#e5658b; stroke:none;" d="M139 174L140 175L139 174z"/>
<path style="fill:#f79958; stroke:none;" d="M331 174L332 175L331 174z"/>
<path style="fill:#e46587; stroke:none;" d="M66 175L67 176L66 175z"/>
<path style="fill:#fac6a0; stroke:none;" d="M257 175L258 176L257 175z"/>
<path style="fill:#f8c097; stroke:none;" d="M315 175L316 176L315 175z"/>
<path style="fill:#f9bc8f; stroke:none;" d="M359 175L359 181C359.951 178.715 359.951 177.285 359 175z"/>
<path style="fill:#e87b9c; stroke:none;" d="M82 176L83 177L82 176z"/>
<path style="fill:#efa1b6; stroke:none;" d="M140 176L141 177L140 176z"/>
<path style="fill:#facba9; stroke:none;" d="M330 176L331 177L330 176z"/>
<path style="fill:#f4bacb; stroke:none;" d="M67 177L68 178L67 177z"/>
<path style="fill:#e1527a; stroke:none;" d="M67 178L68 179L67 178z"/>
<path style="fill:#f79f61; stroke:none;" d="M256 178L257 179L256 178z"/>
<path style="fill:#fbd0b0; stroke:none;" d="M314 178L315 179L314 178z"/>
<path style="fill:#de416d; stroke:none;" d="M38 179L38 183C38.7102 181.241 38.7102 180.76 38 179z"/>
<path style="fill:#ee9eb5; stroke:none;" d="M83 179L84 180L83 179z"/>
<path style="fill:#e46488; stroke:none;" d="M141 179L142 180L141 179z"/>
<path style="fill:#f9bc91; stroke:none;" d="M329 179L330 180L329 179z"/>
<path style="fill:#efa2b8; stroke:none;" d="M68 180L69 181L68 180z"/>
<path style="fill:#f9c098; stroke:none;" d="M255 180L256 181L255 180z"/>
<path style="fill:#f8a161; stroke:none;" d="M313 180L314 181L313 180z"/>
<path style="fill:#e1517b; stroke:none;" d="M84 181L85 182L84 181z"/>
<path style="fill:#ed94ae; stroke:none;" d="M142 181L143 182L142 181z"/>
<path style="fill:#f6c3d2; stroke:none;" d="M84 182L85 183L84 182z"/>
<path style="fill:#f8aa73; stroke:none;" d="M328 182L329 183L328 182z"/>
<path style="fill:#f0b0c2; stroke:none;" d="M38 183L38 186C38.6961 184.446 38.6961 184.554 38 183z"/>
<path style="fill:#e87999; stroke:none;" d="M69 183L70 184L69 183z"/>
<path style="fill:#fbbc91; stroke:none;" d="M312 183L313 184L312 183z"/>
<path style="fill:#ea819c; stroke:none;" d="M85 184L86 185L85 184z"/>
<path style="fill:#e14e79; stroke:none;" d="M143 184L144 185L143 184z"/>
<path style="fill:#fcd3b7; stroke:none;" d="M327 184L328 185L327 184z"/>
<path style="fill:#f3bfcd; stroke:none;" d="M70 185L71 186L70 185z"/>
<path style="fill:#f8b483; stroke:none;" d="M253 185L254 186L253 185z"/>
<path style="fill:#f69957; stroke:none;" d="M358.333 185.667C358.278 185.722 358.222 186.778 358.667 186.333C358.722 186.278 358.778 185.222 358.333 185.667z"/>
<path style="fill:#ea7c9b; stroke:none;" d="M144 186L145 187L144 186z"/>
<path style="fill:#fbd7bf; stroke:none;" d="M311 186L312 187L311 186z"/>
<path style="fill:#f3b9c9; stroke:none;" d="M86 187L87 188L86 187z"/>
<path style="fill:#fbd0b2; stroke:none;" d="M252 187L253 188L252 187z"/>
<path style="fill:#f9b98b; stroke:none;" d="M326 187L327 188L326 187z"/>
<path style="fill:#fad0b2; stroke:none;" d="M358.333 187.667C358.278 187.722 358.222 188.778 358.667 188.333C358.722 188.278 358.778 187.222 358.333 187.667z"/>
<path style="fill:#e46285; stroke:none;" d="M39.3333 188.667C39.2777 188.722 39.2223 189.778 39.6667 189.333C39.7222 189.278 39.7778 188.222 39.3333 188.667z"/>
<path style="fill:#ec8ea9; stroke:none;" d="M71 188L72 189L71 188z"/>
<path style="fill:#f0adc0; stroke:none;" d="M145 188L146 189L145 188z"/>
<path style="fill:#f9b685; stroke:none;" d="M310 188L311 189L310 188z"/>
<path style="fill:#ea7e9c; stroke:none;" d="M87 189L88 190L87 189z"/>
<path style="fill:#f4c7d4; stroke:none;" d="M39.3333 190.667C39.2777 190.722 39.2222 191.778 39.6667 191.333C39.7222 191.278 39.7778 190.222 39.3333 190.667z"/>
<path style="fill:#f79d5c; stroke:none;" d="M251 190L252 191L251 190z"/>
<path style="fill:#e2567e; stroke:none;" d="M72 191L73 192L72 191z"/>
<path style="fill:#e2547c; stroke:none;" d="M146 191L147 192L146 191z"/>
<path style="fill:#f5c1d0; stroke:none;" d="M88 192L89 193L88 192z"/>
<path style="fill:#f9b786; stroke:none;" d="M250 192L251 193L250 192z"/>
<path style="fill:#f8bb8c; stroke:none;" d="M324 192L325 193L324 192z"/>
<path style="fill:#f8a162; stroke:none;" d="M357 192L358 193L357 192z"/>
<path style="fill:#eb90aa; stroke:none;" d="M73 193L74 194L73 193z"/>
<path style="fill:#e9819f; stroke:none;" d="M147 193L148 194L147 193z"/>
<path style="fill:#fabf96; stroke:none;" d="M308 193L309 194L308 193z"/>
<path style="fill:#fde6d6; stroke:none;" d="M357.333 193.667C357.278 193.722 357.222 194.778 357.667 194.333C357.722 194.278 357.778 193.222 357.333 193.667z"/>
<path style="fill:#e56588; stroke:none;" d="M40 194L41 195L40 194z"/>
<path style="fill:#eb8aa6; stroke:none;" d="M89 194L90 195L89 194z"/>
<path style="fill:#facead; stroke:none;" d="M249 194L250 195L249 194z"/>
<path style="fill:#f9dce5; stroke:none;" d="M40.3333 195.667C40.2777 195.722 40.2222 196.778 40.6667 196.333C40.7222 196.278 40.7778 195.222 40.3333 195.667z"/>
<path style="fill:#eea8bb; stroke:none;" d="M148 195L149 196L148 195z"/>
<path style="fill:#f5a265; stroke:none;" d="M307 195L308 196L307 195z"/>
<path style="fill:#e1507a; stroke:none;" d="M74 196L75 197L74 196z"/>
<path style="fill:#e56589; stroke:none;" d="M90 196L91 197L90 196z"/>
<path style="fill:#f79855; stroke:none;" d="M248 197L249 198L248 197z"/>
<path style="fill:#f7b584; stroke:none;" d="M322 197L323 198L322 197z"/>
<path style="fill:#f9b889; stroke:none;" d="M356 197L357 198L356 197z"/>
<path style="fill:#e3577f; stroke:none;" d="M41 198L42 199L41 198z"/>
<path style="fill:#ea82a0; stroke:none;" d="M75 198L76 199L75 198z"/>
<path style="fill:#fbd3b6; stroke:none;" d="M306 198L307 199L306 198z"/>
<path style="fill:#efa3b8; stroke:none;" d="M41 199L42 200L41 199z"/>
<path style="fill:#f3b7c8; stroke:none;" d="M91 199L92 200L91 199z"/>
<path style="fill:#f8ad78; stroke:none;" d="M247 199L248 200L247 199z"/>
<path style="fill:#fbd0b1; stroke:none;" d="M321 199L322 200L321 199z"/>
<path style="fill:#f1b2c4; stroke:none;" d="M76 200L77 201L76 200z"/>
<path style="fill:#e56a8c; stroke:none;" d="M150 200L151 201L150 200z"/>
<path style="fill:#f9bc90; stroke:none;" d="M305 200L306 201L305 200z"/>
<path style="fill:#ec91aa; stroke:none;" d="M92 201L93 202L92 201z"/>
<path style="fill:#fac49d; stroke:none;" d="M246 201L247 202L246 201z"/>
<path style="fill:#fac39c; stroke:none;" d="M355 201L356 202L355 201z"/>
<path style="fill:#e87897; stroke:none;" d="M42 202L43 203L42 202z"/>
<path style="fill:#ec8da8; stroke:none;" d="M151 202L152 203L151 202z"/>
<path style="fill:#f7a468; stroke:none;" d="M304 202L305 203L304 202z"/>
<path style="fill:#f8a164; stroke:none;" d="M320 202L321 203L320 202z"/>
<path style="fill:#e36187; stroke:none;" d="M77 203L78 204L77 203z"/>
<path style="fill:#e66b8f; stroke:none;" d="M93 203L94 204L93 203z"/>
<path style="fill:#fad6ba; stroke:none;" d="M245 203L246 204L245 203z"/>
<path style="fill:#f2b3c6; stroke:none;" d="M28 204L29 205L28 204z"/>
<path style="fill:#f0acc0; stroke:none;" d="M152 204L153 205L152 204z"/>
<path style="fill:#f9c096; stroke:none;" d="M319 204L320 205L319 204z"/>
<path style="fill:#f8b17e; stroke:none;" d="M354 204L355 205L354 204z"/>
<path style="fill:#faceaf; stroke:none;" d="M368 204L369 205L368 204z"/>
<path style="fill:#d91c52; stroke:none;" d="M28 205C25.6664 212.174 23.37 219.394 23.0394 227C22.2516 245.123 29.5134 262.83 38.811 278C56.4704 306.812 82.7272 329.267 104.246 355C113.364 365.904 124.087 378.504 129 392C130.939 387.245 128.56 381.698 127.115 377C123.309 364.625 117.057 353.039 110.399 342C91.981 311.466 69.4787 283.628 51.2006 253C45.811 243.969 40.5709 234.681 36.4275 225C33.6928 218.61 32.1497 210.547 28 205z"/>
<path style="fill:#e35b80; stroke:none;" d="M43 205L44 206L43 205z"/>
<path style="fill:#ed92ad; stroke:none;" d="M78 205L79 206L78 205z"/>
<path style="fill:#e25279; stroke:none;" d="M94 205L95 206L94 205z"/>
<path style="fill:#f57921; stroke:none;" d="M368 205C365.79 219.966 356.657 235.032 349.281 248C331.645 279.004 308.962 306.724 290.192 337C280.473 352.676 268.828 371.014 268 390C273.012 385.057 276.366 377.844 280.344 372C286.349 363.18 293.249 355.007 300.285 347C323.833 320.205 352.86 295.42 367.279 262C372.534 249.822 374.153 238.15 373.996 225C373.916 218.268 372.824 209.988 368 205z"/>
<path style="fill:#f9bb8f; stroke:none;" d="M369 205L370 206L369 205z"/>
<path style="fill:#f3b7c7; stroke:none;" d="M27 206L28 207L27 206z"/>
<path style="fill:#ea89a5; stroke:none;" d="M29 206L30 207L29 206z"/>
<path style="fill:#f3bdcb; stroke:none;" d="M43 206L44 207L43 206z"/>
<path style="fill:#f3bdce; stroke:none;" d="M79 207L80 208L79 207z"/>
<path style="fill:#fbcfaf; stroke:none;" d="M302 207L303 208L302 207z"/>
<path style="fill:#f9ab73; stroke:none;" d="M353 207L354 208L353 207z"/>
<path style="fill:#fbd5b9; stroke:none;" d="M370 207L371 208L370 207z"/>
<path style="fill:#e45b82; stroke:none;" d="M44 208L45 209L44 208z"/>
<path style="fill:#f3b9ca; stroke:none;" d="M95 208L96 209L95 208z"/>
<path style="fill:#f7a970; stroke:none;" d="M243 208L244 209L243 208z"/>
<path style="fill:#f8ac76; stroke:none;" d="M367 208L368 209L367 208z"/>
<path style="fill:#e77493; stroke:none;" d="M26 209L27 210L26 209z"/>
<path style="fill:#ec91ab; stroke:none;" d="M30 209L31 210L30 209z"/>
<path style="fill:#f3bfcc; stroke:none;" d="M44 209L45 210L44 209z"/>
<path style="fill:#e5678a; stroke:none;" d="M154 209L155 210L154 209z"/>
<path style="fill:#fbc096; stroke:none;" d="M301 209L302 210L301 209z"/>
<path style="fill:#f8a66d; stroke:none;" d="M317 209L318 210L317 209z"/>
<path style="fill:#e56187; stroke:none;" d="M80 210L81 211L80 210z"/>
<path style="fill:#ee9db5; stroke:none;" d="M96 210L97 211L96 210z"/>
<path style="fill:#f9bc90; stroke:none;" d="M242 210L243 211L242 210z"/>
<path style="fill:#f9b17d; stroke:none;" d="M352 210L353 211L352 210z"/>
<path style="fill:#f9ba8c; stroke:none;" d="M371 210L372 211L371 210z"/>
<path style="fill:#e66e90; stroke:none;" d="M45 211L46 212L45 211z"/>
<path style="fill:#e9819d; stroke:none;" d="M155 211L156 212L155 211z"/>
<path style="fill:#f8af7a; stroke:none;" d="M300 211L301 212L300 211z"/>
<path style="fill:#f9bb8f; stroke:none;" d="M316 211L317 212L316 211z"/>
<path style="fill:#f8ae78; stroke:none;" d="M366 211L367 212L366 211z"/>
<path style="fill:#e77394; stroke:none;" d="M25 212L26 213L25 212z"/>
<path style="fill:#eb8ba5; stroke:none;" d="M31 212L32 213L31 212z"/>
<path style="fill:#ea87a3; stroke:none;" d="M81 212L82 213L81 212z"/>
<path style="fill:#eb86a3; stroke:none;" d="M97 212L98 213L97 212z"/>
<path style="fill:#faceae; stroke:none;" d="M241 212L242 213L241 212z"/>
<path style="fill:#ef9fb6; stroke:none;" d="M156 213L157 214L156 213z"/>
<path style="fill:#f8a060; stroke:none;" d="M299 213L300 214L299 213z"/>
<path style="fill:#fbd1b3; stroke:none;" d="M315 213L316 214L315 213z"/>
<path style="fill:#fbc49e; stroke:none;" d="M351 213L352 214L351 213z"/>
<path style="fill:#fac49c; stroke:none;" d="M372 213L373 214L372 213z"/>
<path style="fill:#ed96af; stroke:none;" d="M46 214L47 215L46 214z"/>
<path style="fill:#efa8bc; stroke:none;" d="M82 214L83 215L82 214z"/>
<path style="fill:#e56d8f; stroke:none;" d="M98 214L99 215L98 214z"/>
<path style="fill:#f7a265; stroke:none;" d="M365 214L366 215L365 214z"/>
<path style="fill:#f0a9bd; stroke:none;" d="M24 215L25 216L24 215z"/>
<path style="fill:#e77193; stroke:none;" d="M32 215L33 216L32 215z"/>
<path style="fill:#f3bccb; stroke:none;" d="M157 215L158 216L157 215z"/>
<path style="fill:#f7a164; stroke:none;" d="M350 215L351 216L350 215z"/>
<path style="fill:#e6698d; stroke:none;" d="M24 216L25 217L24 216z"/>
<path style="fill:#e45981; stroke:none;" d="M47 216L48 217L47 216z"/>
<path style="fill:#f4c0cf; stroke:none;" d="M83 216L84 217L83 216z"/>
<path style="fill:#e35d82; stroke:none;" d="M99 216L100 217L99 216z"/>
<path style="fill:#fad0b0; stroke:none;" d="M364 216L365 217L364 216z"/>
<path style="fill:#f1b4c4; stroke:none;" d="M33 217L34 218L33 217z"/>
<path style="fill:#f79b58; stroke:none;" d="M239 217L240 218L239 217z"/>
<path style="fill:#f9ae78; stroke:none;" d="M373.333 217.667C373.278 217.722 373.222 218.778 373.667 218.333C373.722 218.278 373.778 217.222 373.333 217.667z"/>
<path style="fill:#f8a66c; stroke:none;" d="M313 218L314 219L313 218z"/>
<path style="fill:#fbcba8; stroke:none;" d="M349 218L350 219L349 218z"/>
<path style="fill:#f0a7bb; stroke:none;" d="M48 219L49 220L48 219z"/>
<path style="fill:#e35e84; stroke:none;" d="M84 219L85 220L84 219z"/>
<path style="fill:#f8a970; stroke:none;" d="M238 219L239 220L238 219z"/>
<path style="fill:#f7b17d; stroke:none;" d="M363 219L364 220L363 219z"/>
<path style="fill:#ea88a3; stroke:none;" d="M23 220L23 223C23.6961 221.446 23.6961 221.554 23 220z"/>
<path style="fill:#e9809d; stroke:none;" d="M34 220L35 221L34 220z"/>
<path style="fill:#e46386; stroke:none;" d="M159 220L160 221L159 220z"/>
<path style="fill:#fbd8bd; stroke:none;" d="M296 220L297 221L296 220z"/>
<path style="fill:#f9b585; stroke:none;" d="M312 220L313 221L312 220z"/>
<path style="fill:#f7ae78; stroke:none;" d="M348 220L349 221L348 220z"/>
<path style="fill:#e87b9b; stroke:none;" d="M49 221L50 222L49 221z"/>
<path style="fill:#e77596; stroke:none;" d="M85 221L86 222L85 221z"/>
<path style="fill:#f9bb8d; stroke:none;" d="M237 221L238 222L237 221z"/>
<path style="fill:#facdac; stroke:none;" d="M362 221L363 222L362 221z"/>
<path style="fill:#f0abc0; stroke:none;" d="M35 222L36 223L35 222z"/>
<path style="fill:#e97d9b; stroke:none;" d="M160 222L161 223L160 222z"/>
<path style="fill:#fbcfb0; stroke:none;" d="M295 222L296 223L295 222z"/>
<path style="fill:#fac39b; stroke:none;" d="M311 222L312 223L311 222z"/>
<path style="fill:#fce2d0; stroke:none;" d="M374 222L374 225C374.696 223.446 374.696 223.554 374 222z"/>
<path style="fill:#e46085; stroke:none;" d="M50 223L51 224L50 223z"/>
<path style="fill:#ec8da7; stroke:none;" d="M86 223L87 224L86 223z"/>
<path style="fill:#f4bdcd; stroke:none;" d="M102 223L103 224L102 223z"/>
<path style="fill:#fac7a1; stroke:none;" d="M236 223L237 224L236 223z"/>
<path style="fill:#ed95ae; stroke:none;" d="M161 224L162 225L161 224z"/>
<path style="fill:#fac6a0; stroke:none;" d="M294 224L295 225L294 224z"/>
<path style="fill:#fbd1b4; stroke:none;" d="M310 224L311 225L310 224z"/>
<path style="fill:#f79f61; stroke:none;" d="M361 224L362 225L361 224z"/>
<path style="fill:#e2567f; stroke:none;" d="M36 225L37 226L36 225z"/>
<path style="fill:#efa4b9; stroke:none;" d="M87 225L88 226L87 225z"/>
<path style="fill:#f2afc3; stroke:none;" d="M103 225L104 226L103 225z"/>
<path style="fill:#fcd8c1; stroke:none;" d="M235 225L236 226L235 225z"/>
<path style="fill:#f9ae79; stroke:none;" d="M374 225L374 234C375.256 231.006 375.256 227.994 374 225z"/>
<path style="fill:#f1b2c4; stroke:none;" d="M162 226L163 227L162 226z"/>
<path style="fill:#fabf96; stroke:none;" d="M293 226L294 227L293 226z"/>
<path style="fill:#f7b27f; stroke:none;" d="M360 226L361 227L360 226z"/>
<path style="fill:#e77192; stroke:none;" d="M37 227L38 228L37 227z"/>
<path style="fill:#f2b7c8; stroke:none;" d="M88 227L89 228L88 227z"/>
<path style="fill:#f0a4ba; stroke:none;" d="M104 227L105 228L104 227z"/>
<path style="fill:#fcd6bc; stroke:none;" d="M345 227L346 228L345 227z"/>
<path style="fill:#f5c5d3; stroke:none;" d="M163 228L164 229L163 228z"/>
<path style="fill:#f9bc90; stroke:none;" d="M292 228L293 229L292 228z"/>
<path style="fill:#f9c5a1; stroke:none;" d="M359 228L360 229L359 228z"/>
<path style="fill:#ec8ba7; stroke:none;" d="M38 229L39 230L38 229z"/>
<path style="fill:#f4c5d4; stroke:none;" d="M89 229L90 230L89 229z"/>
<path style="fill:#ed98b0; stroke:none;" d="M105 229L106 230L105 229z"/>
<path style="fill:#fbd3b7; stroke:none;" d="M344 229L345 230L344 229z"/>
<path style="fill:#f7a366; stroke:none;" d="M233 230L234 231L233 230z"/>
<path style="fill:#f7b07e; stroke:none;" d="M291 230L292 231L291 230z"/>
<path style="fill:#facfb1; stroke:none;" d="M358 230L359 231L358 230z"/>
<path style="fill:#ef9fb6; stroke:none;" d="M39 231L40 232L39 231z"/>
<path style="fill:#ec8ea9; stroke:none;" d="M106 231L107 232L106 231z"/>
<path style="fill:#e2577e; stroke:none;" d="M164 231L165 232L164 231z"/>
<path style="fill:#f69c5c; stroke:none;" d="M307 231L308 232L307 231z"/>
<path style="fill:#fbd6ba; stroke:none;" d="M343 231L344 232L343 231z"/>
<path style="fill:#f9b07c; stroke:none;" d="M232 232L233 233L232 232z"/>
<path style="fill:#f8ad75; stroke:none;" d="M290 232L291 233L290 232z"/>
<path style="fill:#fbd5b9; stroke:none;" d="M357 232L358 233L357 232z"/>
<path style="fill:#ef9eb6; stroke:none;" d="M40 233L41 234L40 233z"/>
<path style="fill:#ea86a3; stroke:none;" d="M107 233L108 234L107 233z"/>
<path style="fill:#e66f90; stroke:none;" d="M165 233L166 234L165 233z"/>
<path style="fill:#f7a86f; stroke:none;" d="M306 233L307 234L306 233z"/>
<path style="fill:#fbd6ba; stroke:none;" d="M342 233L343 234L342 233z"/>
<path style="fill:#e2567f; stroke:none;" d="M91 234L92 235L91 234z"/>
<path style="fill:#fac097; stroke:none;" d="M231 234L232 235L231 234z"/>
<path style="fill:#f7aa71; stroke:none;" d="M289 234L290 235L289 234z"/>
<path style="fill:#fbd8be; stroke:none;" d="M356 234L357 235L356 234z"/>
<path style="fill:#fdeee3; stroke:none;" d="M374 234L374 238C374.71 236.24 374.71 235.76 374 234z"/>
<path style="fill:#ee9eb5; stroke:none;" d="M41 235L42 236L41 235z"/>
<path style="fill:#e87e9c; stroke:none;" d="M108 235L109 236L108 235z"/>
<path style="fill:#eb8ca8; stroke:none;" d="M166 235L167 236L166 235z"/>
<path style="fill:#f7af79; stroke:none;" d="M305 235L306 236L305 235z"/>
<path style="fill:#e97d9b; stroke:none;" d="M23 236L23 239C23.6961 237.446 23.6961 237.554 23 236z"/>
<path style="fill:#e4668a; stroke:none;" d="M92 236L93 237L92 236z"/>
<path style="fill:#faceaf; stroke:none;" d="M230 236L231 237L230 236z"/>
<path style="fill:#f7aa73; stroke:none;" d="M288 236L289 237L288 236z"/>
<path style="fill:#fcd8be; stroke:none;" d="M355 236L356 237L355 236z"/>
<path style="fill:#efa0b7; stroke:none;" d="M42 237L43 238L42 237z"/>
<path style="fill:#e5678b; stroke:none;" d="M57 237L58 238L57 237z"/>
<path style="fill:#e97f9e; stroke:none;" d="M109 237L110 238L109 237z"/>
<path style="fill:#f0a2b8; stroke:none;" d="M167 237L168 238L167 237z"/>
<path style="fill:#f8b37f; stroke:none;" d="M304 237L305 238L304 237z"/>
<path style="fill:#e66d8e; stroke:none;" d="M93 238L94 239L93 238z"/>
<path style="fill:#f7a061; stroke:none;" d="M287 238L288 239L287 238z"/>
<path style="fill:#f79f60; stroke:none;" d="M339 238L340 239L339 238z"/>
<path style="fill:#fcd1b4; stroke:none;" d="M354 238L355 239L354 238z"/>
<path style="fill:#ed97af; stroke:none;" d="M43 239L44 240L43 239z"/>
<path style="fill:#ea819f; stroke:none;" d="M58 239L59 240L58 239z"/>
<path style="fill:#e97e9b; stroke:none;" d="M110 239L111 240L110 239z"/>
<path style="fill:#f4c2d1; stroke:none;" d="M168 239L169 240L168 239z"/>
<path style="fill:#f7b280; stroke:none;" d="M303 239L304 240L303 239z"/>
<path style="fill:#e66b8e; stroke:none;" d="M94 240L95 241L94 240z"/>
<path style="fill:#f79e5e; stroke:none;" d="M286 240L287 241L286 240z"/>
<path style="fill:#f8b281; stroke:none;" d="M338 240L339 241L338 240z"/>
<path style="fill:#f9cba9; stroke:none;" d="M353 240L354 241L353 240z"/>
<path style="fill:#e87b9b; stroke:none;" d="M44 241L45 242L44 241z"/>
<path style="fill:#f0a3b8; stroke:none;" d="M59 241L60 242L59 241z"/>
<path style="fill:#e67090; stroke:none;" d="M111 241L112 242L111 241z"/>
<path style="fill:#f7a469; stroke:none;" d="M228 241L229 242L228 241z"/>
<path style="fill:#f9bb8e; stroke:none;" d="M302 241L303 242L302 241z"/>
<path style="fill:#fac29b; stroke:none;" d="M373.333 241.667C373.278 241.722 373.222 242.778 373.667 242.333C373.722 242.278 373.778 241.222 373.333 241.667z"/>
<path style="fill:#e56d90; stroke:none;" d="M95 242L96 243L95 242z"/>
<path style="fill:#e46085; stroke:none;" d="M169 242L170 243L169 242z"/>
<path style="fill:#f69c5c; stroke:none;" d="M285 242L286 243L285 242z"/>
<path style="fill:#f9c7a0; stroke:none;" d="M337 242L338 243L337 242z"/>
<path style="fill:#f9b98b; stroke:none;" d="M352 242L353 243L352 242z"/>
<path style="fill:#e45e82; stroke:none;" d="M24 243L25 244L24 243z"/>
<path style="fill:#e56589; stroke:none;" d="M45 243L46 244L45 243z"/>
<path style="fill:#e77191; stroke:none;" d="M112 243L113 244L112 243z"/>
<path style="fill:#f9ba8c; stroke:none;" d="M227 243L228 244L227 243z"/>
<path style="fill:#f9bb8f; stroke:none;" d="M301 243L302 244L301 243z"/>
<path style="fill:#ef9bb1; stroke:none;" d="M24 244L25 245L24 244z"/>
<path style="fill:#e87b9a; stroke:none;" d="M96 244L97 245L96 244z"/>
<path style="fill:#ec88a5; stroke:none;" d="M170 244L171 245L170 244z"/>
<path style="fill:#f69c5c; stroke:none;" d="M284 244L285 245L284 244z"/>
<path style="fill:#f7aa71; stroke:none;" d="M351 244L352 245L351 244z"/>
<path style="fill:#e46387; stroke:none;" d="M113 245L114 246L113 245z"/>
<path style="fill:#fcd4b7; stroke:none;" d="M226 245L227 246L226 245z"/>
<path style="fill:#f9bc8f; stroke:none;" d="M300 245L301 246L300 245z"/>
<path style="fill:#e8819e; stroke:none;" d="M62 246L63 247L62 246z"/>
<path style="fill:#e97f9e; stroke:none;" d="M97 246L98 247L97 246z"/>
<path style="fill:#f2b4c6; stroke:none;" d="M171 246L172 247L171 246z"/>
<path style="fill:#f8ab73; stroke:none;" d="M372 246L373 247L372 246z"/>
<path style="fill:#e46889; stroke:none;" d="M114 247L115 248L114 247z"/>
<path style="fill:#f8bb8d; stroke:none;" d="M299 247L300 248L299 247z"/>
<path style="fill:#f9b787; stroke:none;" d="M334 247L335 248L334 247z"/>
<path style="fill:#fbd4b8; stroke:none;" d="M372 247L373 248L372 247z"/>
<path style="fill:#eb88a4; stroke:none;" d="M25 248L26 249L25 248z"/>
<path style="fill:#ed9cb3; stroke:none;" d="M48 248L49 249L48 248z"/>
<path style="fill:#f3b9cb; stroke:none;" d="M63 248L64 249L63 248z"/>
<path style="fill:#e67596; stroke:none;" d="M98 248L99 249L98 248z"/>
<path style="fill:#f7a66a; stroke:none;" d="M225 248L226 249L225 248z"/>
<path style="fill:#e35a82; stroke:none;" d="M115 249L116 250L115 249z"/>
<path style="fill:#e77192; stroke:none;" d="M172 249L173 250L172 249z"/>
<path style="fill:#fabc90; stroke:none;" d="M298 249L299 250L298 249z"/>
<path style="fill:#fac7a0; stroke:none;" d="M348 249L349 250L348 249z"/>
<path style="fill:#e67191; stroke:none;" d="M49 250L50 251L49 250z"/>
<path style="fill:#e66f91; stroke:none;" d="M99 250L100 251L99 250z"/>
<path style="fill:#facaa5; stroke:none;" d="M224 250L225 251L224 250z"/>
<path style="fill:#f9b381; stroke:none;" d="M371 250L372 251L371 250z"/>
<path style="fill:#e3577e; stroke:none;" d="M26 251L27 252L26 251z"/>
<path style="fill:#ea7e9d; stroke:none;" d="M65 251L66 252L65 251z"/>
<path style="fill:#f0abbe; stroke:none;" d="M173 251L174 252L173 251z"/>
<path style="fill:#faba8e; stroke:none;" d="M297 251L298 252L297 251z"/>
<path style="fill:#f8aa71; stroke:none;" d="M347 251L348 252L347 251z"/>
<path style="fill:#f3b5c7; stroke:none;" d="M26 252L27 253L26 252z"/>
<path style="fill:#e56d8f; stroke:none;" d="M100 252L101 253L100 252z"/>
<path style="fill:#fab98e; stroke:none;" d="M331 252L332 253L331 252z"/>
<path style="fill:#f1b5c7; stroke:none;" d="M51 253L52 254L51 253z"/>
<path style="fill:#f4c5d2; stroke:none;" d="M66 253L67 254L66 253z"/>
<path style="fill:#f8ac74; stroke:none;" d="M223 253L224 254L223 253z"/>
<path style="fill:#fbd9bf; stroke:none;" d="M280 253L281 254L280 253z"/>
<path style="fill:#f7b07d; stroke:none;" d="M296 253L297 254L296 253z"/>
<path style="fill:#f7a770; stroke:none;" d="M370 253L371 254L370 253z"/>
<path style="fill:#e2547d; stroke:none;" d="M27 254L28 255L27 254z"/>
<path style="fill:#e3577f; stroke:none;" d="M67 254L68 255L67 254z"/>
<path style="fill:#e45d82; stroke:none;" d="M101 254L102 255L101 254z"/>
<path style="fill:#e87a99; stroke:none;" d="M174 254L175 255L174 254z"/>
<path style="fill:#facfb0; stroke:none;" d="M345 254L346 255L345 254z"/>
<path style="fill:#f3b8c9; stroke:none;" d="M27 255L28 256L27 255z"/>
<path style="fill:#e87999; stroke:none;" d="M52 255L53 256L52 255z"/>
<path style="fill:#fbd4b7; stroke:none;" d="M222 255L223 256L222 255z"/>
<path style="fill:#fbd8be; stroke:none;" d="M279 255L280 256L279 255z"/>
<path style="fill:#f8ae78; stroke:none;" d="M295 255L296 256L295 255z"/>
<path style="fill:#f8a266; stroke:none;" d="M329 255L330 256L329 255z"/>
<path style="fill:#eea0b6; stroke:none;" d="M68 256L69 257L68 256z"/>
<path style="fill:#e35a80; stroke:none;" d="M102 256L103 257L102 256z"/>
<path style="fill:#f5c5d3; stroke:none;" d="M175 256L176 257L175 256z"/>
<path style="fill:#f9ac76; stroke:none;" d="M344 256L345 257L344 256z"/>
<path style="fill:#f9b17e; stroke:none;" d="M369 256L370 257L369 256z"/>
<path style="fill:#e56b8d; stroke:none;" d="M28 257L29 258L28 257z"/>
<path style="fill:#e35b80; stroke:none;" d="M175 257L176 258L175 257z"/>
<path style="fill:#fbd4b9; stroke:none;" d="M278 257L279 258L278 257z"/>
<path style="fill:#f7ab74; stroke:none;" d="M294 257L295 258L294 257z"/>
<path style="fill:#fad0b0; stroke:none;" d="M328 257L329 258L328 257z"/>
<path style="fill:#f0afc1; stroke:none;" d="M54 258L55 259L54 258z"/>
<path style="fill:#e1507a; stroke:none;" d="M103 258L104 259L103 258z"/>
<path style="fill:#f5c5d3; stroke:none;" d="M119 258L120 259L119 258z"/>
<path style="fill:#fac096; stroke:none;" d="M221 258L222 259L221 258z"/>
<path style="fill:#ec86a3; stroke:none;" d="M70 259L71 260L70 259z"/>
<path style="fill:#f0abbf; stroke:none;" d="M176 259L177 260L176 259z"/>
<path style="fill:#fbceae; stroke:none;" d="M277 259L278 260L277 259z"/>
<path style="fill:#f6a56b; stroke:none;" d="M293 259L294 260L293 259z"/>
<path style="fill:#fac6a1; stroke:none;" d="M342 259L343 260L342 259z"/>
<path style="fill:#fbcead; stroke:none;" d="M368 259L369 260L368 259z"/>
<path style="fill:#f0aec0; stroke:none;" d="M29 260L30 261L29 260z"/>
<path style="fill:#e46286; stroke:none;" d="M55 260L56 261L55 260z"/>
<path style="fill:#f3bece; stroke:none;" d="M120 260L121 261L120 260z"/>
<path style="fill:#fac39c; stroke:none;" d="M326 260L327 261L326 260z"/>
<path style="fill:#f9b380; stroke:none;" d="M220 261L221 262L220 261z"/>
<path style="fill:#fac59f; stroke:none;" d="M276 261L277 262L276 261z"/>
<path style="fill:#f79955; stroke:none;" d="M292 261L293 262L292 261z"/>
<path style="fill:#f69e5f; stroke:none;" d="M341 261L342 262L341 261z"/>
<path style="fill:#f9b281; stroke:none;" d="M367 261L368 262L367 261z"/>
<path style="fill:#e9829f; stroke:none;" d="M30 262L31 263L30 262z"/>
<path style="fill:#e77192; stroke:none;" d="M72 262L73 263L72 262z"/>
<path style="fill:#efaec1; stroke:none;" d="M121 262L122 263L121 262z"/>
<path style="fill:#ee9bb3; stroke:none;" d="M177 262L178 263L177 262z"/>
<path style="fill:#ea829f; stroke:none;" d="M57 263L58 264L57 263z"/>
<path style="fill:#f4bfce; stroke:none;" d="M106 263L107 264L106 263z"/>
<path style="fill:#f9bc8f; stroke:none;" d="M275 263L276 264L275 263z"/>
<path style="fill:#f8b686; stroke:none;" d="M324 263L325 264L324 263z"/>
<path style="fill:#f6a264; stroke:none;" d="M366 263L367 264L366 263z"/>
<path style="fill:#e76f90; stroke:none;" d="M31 264L32 265L31 264z"/>
<path style="fill:#ed9fb5; stroke:none;" d="M122 264L123 265L122 264z"/>
<path style="fill:#f8b583; stroke:none;" d="M219 264L220 265L219 264z"/>
<path style="fill:#f8af79; stroke:none;" d="M339 264L340 265L339 264z"/>
<path style="fill:#e56589; stroke:none;" d="M74 265L75 266L74 265z"/>
<path style="fill:#f1b0c2; stroke:none;" d="M107 265L108 266L107 265z"/>
<path style="fill:#ed9cb2; stroke:none;" d="M178 265L179 266L178 265z"/>
<path style="fill:#f9b788; stroke:none;" d="M274 265L275 266L274 265z"/>
<path style="fill:#e76a8e; stroke:none;" d="M32 266L33 267L32 266z"/>
<path style="fill:#ee9cb3; stroke:none;" d="M59 266L60 267L59 266z"/>
<path style="fill:#ed97ae; stroke:none;" d="M123 266L124 267L123 266z"/>
<path style="fill:#fbd5b9; stroke:none;" d="M289 266L290 267L289 266z"/>
<path style="fill:#f9b485; stroke:none;" d="M322 266L323 267L322 266z"/>
<path style="fill:#f5c5d4; stroke:none;" d="M75 267L76 268L75 267z"/>
<path style="fill:#ed9bb2; stroke:none;" d="M108 267L109 268L108 267z"/>
<path style="fill:#f9b688; stroke:none;" d="M218 267L219 268L218 267z"/>
<path style="fill:#f7af7a; stroke:none;" d="M273 267L274 268L273 267z"/>
<path style="fill:#f9bb8e; stroke:none;" d="M337 267L338 268L337 267z"/>
<path style="fill:#e56a8d; stroke:none;" d="M33 268L34 269L33 268z"/>
<path style="fill:#e5668a; stroke:none;" d="M76 268L77 269L76 268z"/>
<path style="fill:#ec8ca7; stroke:none;" d="M124 268L125 269L124 268z"/>
<path style="fill:#eea4b9; stroke:none;" d="M179 268L180 269L179 268z"/>
<path style="fill:#fbccaa; stroke:none;" d="M288 268L289 269L288 268z"/>
<path style="fill:#f0abbf; stroke:none;" d="M61 269L62 270L61 269z"/>
<path style="fill:#ec8ca8; stroke:none;" d="M109 269L110 270L109 269z"/>
<path style="fill:#f7a56a; stroke:none;" d="M272 269L273 270L272 269z"/>
<path style="fill:#f8b686; stroke:none;" d="M320 269L321 270L320 269z"/>
<path style="fill:#f69f62; stroke:none;" d="M363 269L364 270L363 269z"/>
<path style="fill:#e87997; stroke:none;" d="M34 270L35 271L34 270z"/>
<path style="fill:#e97c9b; stroke:none;" d="M125 270L126 271L125 270z"/>
<path style="fill:#fac099; stroke:none;" d="M217 270L218 271L217 270z"/>
<path style="fill:#f8c6a0; stroke:none;" d="M287 270L288 271L287 270z"/>
<path style="fill:#f9c49e; stroke:none;" d="M335 270L336 271L335 270z"/>
<path style="fill:#e2547e; stroke:none;" d="M62 271L63 272L62 271z"/>
<path style="fill:#e56489; stroke:none;" d="M78 271L79 272L78 271z"/>
<path style="fill:#e97e9d; stroke:none;" d="M110 271L111 272L110 271z"/>
<path style="fill:#f3bbcc; stroke:none;" d="M180 271L181 272L180 271z"/>
<path style="fill:#f69f5f; stroke:none;" d="M271 271L272 272L271 271z"/>
<path style="fill:#f8ab72; stroke:none;" d="M362 271L363 272L362 271z"/>
<path style="fill:#efa3b9; stroke:none;" d="M35 272L36 273L35 272z"/>
<path style="fill:#f3b5c6; stroke:none;" d="M63 272L64 273L63 272z"/>
<path style="fill:#e87193; stroke:none;" d="M126 272L127 273L126 272z"/>
<path style="fill:#e5658a; stroke:none;" d="M180 272L181 273L180 272z"/>
<path style="fill:#f9be95; stroke:none;" d="M286 272L287 273L286 272z"/>
<path style="fill:#f8b88a; stroke:none;" d="M318 272L319 273L318 272z"/>
<path style="fill:#ea7d9c; stroke:none;" d="M111 273L112 274L111 273z"/>
<path style="fill:#fbd4b7; stroke:none;" d="M216 273L217 274L216 273z"/>
<path style="fill:#fac6a1; stroke:none;" d="M333 273L334 274L333 273z"/>
<path style="fill:#fbc9a5; stroke:none;" d="M361 273L362 274L361 273z"/>
<path style="fill:#e14f79; stroke:none;" d="M64 274L65 275L64 274z"/>
<path style="fill:#e77394; stroke:none;" d="M80 274L81 275L80 274z"/>
<path style="fill:#e6698c; stroke:none;" d="M127 274L128 275L127 274z"/>
<path style="fill:#f9bb8e; stroke:none;" d="M285 274L286 275L285 274z"/>
<path style="fill:#e45b83; stroke:none;" d="M37 275L38 276L37 275z"/>
<path style="fill:#f3b5c7; stroke:none;" d="M65 275L66 276L65 275z"/>
<path style="fill:#e66f91; stroke:none;" d="M112 275L113 276L112 275z"/>
<path style="fill:#ed90aa; stroke:none;" d="M181 275L182 276L181 275z"/>
<path style="fill:#f9bf95; stroke:none;" d="M316 275L317 276L316 275z"/>
<path style="fill:#e25880; stroke:none;" d="M128 276L129 277L128 276z"/>
<path style="fill:#f9b481; stroke:none;" d="M284 276L285 277L284 276z"/>
<path style="fill:#fac29b; stroke:none;" d="M331 276L332 277L331 276z"/>
<path style="fill:#f7a367; stroke:none;" d="M359 276L360 277L359 276z"/>
<path style="fill:#ee99b1; stroke:none;" d="M38 277L39 278L38 277z"/>
<path style="fill:#e2567f; stroke:none;" d="M66 277L67 278L66 277z"/>
<path style="fill:#e9809d; stroke:none;" d="M82 277L83 278L82 277z"/>
<path style="fill:#e56e90; stroke:none;" d="M113 277L114 278L113 277z"/>
<path style="fill:#f9c6a0; stroke:none;" d="M215 277L216 278L215 277z"/>
<path style="fill:#f0abbe; stroke:none;" d="M67 278L68 279L67 278z"/>
<path style="fill:#f5c5d3; stroke:none;" d="M182 278L183 279L182 278z"/>
<path style="fill:#f8b383; stroke:none;" d="M283 278L284 279L283 278z"/>
<path style="fill:#fac9a4; stroke:none;" d="M314 278L315 279L314 278z"/>
<path style="fill:#fbceae; stroke:none;" d="M358 278L359 279L358 278z"/>
<path style="fill:#e35e84; stroke:none;" d="M114 279L115 280L114 279z"/>
<path style="fill:#e9809d; stroke:none;" d="M182 279L183 280L182 279z"/>
<path style="fill:#fabd91; stroke:none;" d="M329 279L330 280L329 279z"/>
<path style="fill:#ea83a0; stroke:none;" d="M40 280L41 281L40 280z"/>
<path style="fill:#ed96af; stroke:none;" d="M84 280L85 281L84 280z"/>
<path style="fill:#fbd6bb; stroke:none;" d="M267 280L268 281L267 280z"/>
<path style="fill:#f7b382; stroke:none;" d="M282 280L283 281L282 280z"/>
<path style="fill:#ee9fb5; stroke:none;" d="M69 281L70 282L69 281z"/>
<path style="fill:#e46186; stroke:none;" d="M115 281L116 282L115 281z"/>
<path style="fill:#f9bf96; stroke:none;" d="M214 281L215 282L214 281z"/>
<path style="fill:#fbd2b5; stroke:none;" d="M312 281L313 282L312 281z"/>
<path style="fill:#fbc6a0; stroke:none;" d="M356 281L357 282L356 281z"/>
<path style="fill:#fbd1b2; stroke:none;" d="M266 282L267 283L266 282z"/>
<path style="fill:#f9b583; stroke:none;" d="M281 282L282 283L281 282z"/>
<path style="fill:#f9b687; stroke:none;" d="M327 282L328 283L327 282z"/>
<path style="fill:#ec8ca8; stroke:none;" d="M42 283L43 284L42 283z"/>
<path style="fill:#f0a9bd; stroke:none;" d="M86 283L87 284L86 283z"/>
<path style="fill:#e67292; stroke:none;" d="M116 283L117 284L116 283z"/>
<path style="fill:#f4bece; stroke:none;" d="M131 283L132 284L131 283z"/>
<path style="fill:#ea83a0; stroke:none;" d="M183 283L184 284L183 283z"/>
<path style="fill:#ec93ac; stroke:none;" d="M71 284L72 285L71 284z"/>
<path style="fill:#fac9a6; stroke:none;" d="M265 284L266 285L265 284z"/>
<path style="fill:#f8b482; stroke:none;" d="M280 284L281 285L280 284z"/>
<path style="fill:#fbd0b2; stroke:none;" d="M354 284L355 285L354 284z"/>
<path style="fill:#e67292; stroke:none;" d="M117 285L118 286L117 285z"/>
<path style="fill:#f2b6c7; stroke:none;" d="M132 285L133 286L132 285z"/>
<path style="fill:#f8ab72; stroke:none;" d="M213.333 285.667C213.278 285.722 213.222 286.778 213.667 286.333C213.722 286.278 213.778 285.222 213.333 285.667z"/>
<path style="fill:#f8ab74; stroke:none;" d="M309 285L310 286L309 285z"/>
<path style="fill:#f8ac77; stroke:none;" d="M325 285L326 286L325 285z"/>
<path style="fill:#f0adc1; stroke:none;" d="M44 286L45 287L44 286z"/>
<path style="fill:#f9bd92; stroke:none;" d="M264 286L265 287L264 286z"/>
<path style="fill:#faba8e; stroke:none;" d="M279 286L280 287L279 286z"/>
<path style="fill:#e35c82; stroke:none;" d="M45 287L46 288L45 287z"/>
<path style="fill:#e87a9a; stroke:none;" d="M73 287L74 288L73 287z"/>
<path style="fill:#e76d90; stroke:none;" d="M89 287L90 288L89 287z"/>
<path style="fill:#e87a9a; stroke:none;" d="M118 287L119 288L118 287z"/>
<path style="fill:#ef9db4; stroke:none;" d="M133 287L134 288L133 287z"/>
<path style="fill:#efa7bb; stroke:none;" d="M184 287L185 288L184 287z"/>
<path style="fill:#e66d8f; stroke:none;" d="M184 288L185 289L184 288z"/>
<path style="fill:#f8b17d; stroke:none;" d="M263 288L264 289L263 288z"/>
<path style="fill:#fac097; stroke:none;" d="M278 288L279 289L278 288z"/>
<path style="fill:#f9bd92; stroke:none;" d="M307 288L308 289L307 288z"/>
<path style="fill:#f7a366; stroke:none;" d="M323 288L324 289L323 288z"/>
<path style="fill:#f9b989; stroke:none;" d="M351 288L352 289L351 288z"/>
<path style="fill:#ea819f; stroke:none;" d="M119 289L120 290L119 289z"/>
<path style="fill:#e9839f; stroke:none;" d="M134 289L135 290L134 289z"/>
<path style="fill:#fad5ba; stroke:none;" d="M322 289L323 290L322 289z"/>
<path style="fill:#ed96ae; stroke:none;" d="M47 290L48 291L47 290z"/>
<path style="fill:#e46589; stroke:none;" d="M75 290L76 291L75 290z"/>
<path style="fill:#e87b9b; stroke:none;" d="M91 290L92 291L91 290z"/>
<path style="fill:#f7a972; stroke:none;" d="M212.333 290.667C212.278 290.722 212.222 291.778 212.667 291.333C212.722 291.278 212.778 290.222 212.333 290.667z"/>
<path style="fill:#fac9a5; stroke:none;" d="M277 290L278 291L277 290z"/>
<path style="fill:#e2537c; stroke:none;" d="M48 291L49 292L48 291z"/>
<path style="fill:#f5bfce; stroke:none;" d="M76 291L77 292L76 291z"/>
<path style="fill:#ec92ab; stroke:none;" d="M120 291L121 292L120 291z"/>
<path style="fill:#e56489; stroke:none;" d="M135 291L136 292L135 291z"/>
<path style="fill:#f3b8c9; stroke:none;" d="M185.333 291.667C185.278 291.722 185.222 292.778 185.667 292.333C185.722 292.278 185.778 291.222 185.333 291.667z"/>
<path style="fill:#fac9a4; stroke:none;" d="M305 291L306 292L305 291z"/>
<path style="fill:#fbd3b6; stroke:none;" d="M276 292L277 293L276 292z"/>
<path style="fill:#fac49d; stroke:none;" d="M320 292L321 293L320 292z"/>
<path style="fill:#f9bc90; stroke:none;" d="M348 292L349 293L348 292z"/>
<path style="fill:#ed96b0; stroke:none;" d="M93 293L94 294L93 293z"/>
<path style="fill:#f0a2b9; stroke:none;" d="M121 293L122 294L121 293z"/>
<path style="fill:#e2537c; stroke:none;" d="M185.333 293.667C185.278 293.722 185.222 294.778 185.667 294.333C185.722 294.278 185.778 293.222 185.333 293.667z"/>
<path style="fill:#fbd7bd; stroke:none;" d="M261 293L262 294L261 293z"/>
<path style="fill:#f2b3c6; stroke:none;" d="M50 294L51 295L50 294z"/>
<path style="fill:#f0a9bf; stroke:none;" d="M78 294L79 295L78 294z"/>
<path style="fill:#f5c1d0; stroke:none;" d="M136 294L137 295L136 294z"/>
<path style="fill:#fbd6ba; stroke:none;" d="M303 294L304 295L303 294z"/>
<path style="fill:#e87698; stroke:none;" d="M51 295L52 296L51 295z"/>
<path style="fill:#f3b6c7; stroke:none;" d="M122 295L123 296L122 295z"/>
<path style="fill:#fac59f; stroke:none;" d="M211.333 295.667C211.278 295.722 211.222 296.778 211.667 296.333C211.722 296.278 211.778 295.222 211.333 295.667z"/>
<path style="fill:#f9c39b; stroke:none;" d="M260 295L261 296L260 295z"/>
<path style="fill:#f6a162; stroke:none;" d="M302 295L303 296L302 295z"/>
<path style="fill:#f8b686; stroke:none;" d="M318 295L319 296L318 295z"/>
<path style="fill:#f1abbf; stroke:none;" d="M95 296L96 297L95 296z"/>
<path style="fill:#ee9eb5; stroke:none;" d="M137 296L138 297L137 296z"/>
<path style="fill:#fbd7be; stroke:none;" d="M345 296L346 297L345 296z"/>
<path style="fill:#eb8ea9; stroke:none;" d="M80 297L81 298L80 297z"/>
<path style="fill:#f7944d; stroke:none;" d="M211.333 297.667C211.278 297.722 211.222 298.778 211.667 298.333C211.722 298.278 211.778 297.222 211.333 297.667z"/>
<path style="fill:#f7a86f; stroke:none;" d="M259 297L260 298L259 297z"/>
<path style="fill:#f9b07c; stroke:none;" d="M344 297L345 298L344 297z"/>
<path style="fill:#e66d8f; stroke:none;" d="M138 298L139 299L138 298z"/>
<path style="fill:#ed9ab1; stroke:none;" d="M186.333 298.667C186.278 298.722 186.222 299.778 186.667 299.333C186.722 299.278 186.778 298.222 186.333 298.667z"/>
<path style="fill:#f7a76d; stroke:none;" d="M300 298L301 299L300 298z"/>
<path style="fill:#f7a86e; stroke:none;" d="M316 298L317 299L316 298z"/>
<path style="fill:#f3bdcd; stroke:none;" d="M54 299L55 300L54 299z"/>
<path style="fill:#f2b9ca; stroke:none;" d="M97 299L98 300L97 299z"/>
<path style="fill:#f8a970; stroke:none;" d="M273 299L274 300L273 299z"/>
<path style="fill:#eb8aa7; stroke:none;" d="M55 300L56 301L55 300z"/>
<path style="fill:#e76d91; stroke:none;" d="M82 300L83 301L82 300z"/>
<path style="fill:#e45e85; stroke:none;" d="M98 300L99 301L98 300z"/>
<path style="fill:#e5678a; stroke:none;" d="M124 300L125 301L124 300z"/>
<path style="fill:#e2547b; stroke:none;" d="M186.333 300.667C186.278 300.722 186.222 301.778 186.667 301.333C186.722 301.278 186.778 300.222 186.333 300.667z"/>
<path style="fill:#fbd6bb; stroke:none;" d="M258 300L259 301L258 300z"/>
<path style="fill:#e46286; stroke:none;" d="M56 301L57 302L56 301z"/>
<path style="fill:#f3b8c8; stroke:none;" d="M139 301L140 302L139 301z"/>
<path style="fill:#f8b889; stroke:none;" d="M272 301L273 302L272 301z"/>
<path style="fill:#f8b280; stroke:none;" d="M298 301L299 302L298 301z"/>
<path style="fill:#e985a1; stroke:none;" d="M125 302L126 303L125 302z"/>
<path style="fill:#fcd0b3; stroke:none;" d="M210 302L210 305C210.696 303.446 210.696 303.554 210 302z"/>
<path style="fill:#f8b686; stroke:none;" d="M257 302L258 303L257 302z"/>
<path style="fill:#facca9; stroke:none;" d="M313 302L314 303L313 302z"/>
<path style="fill:#facfb0; stroke:none;" d="M340 302L341 303L340 302z"/>
<path style="fill:#e1537d; stroke:none;" d="M84 303L85 304L84 303z"/>
<path style="fill:#e67393; stroke:none;" d="M100 303L101 304L100 303z"/>
<path style="fill:#e97c9a; stroke:none;" d="M140 303L141 304L140 303z"/>
<path style="fill:#fbcfb1; stroke:none;" d="M271 303L272 304L271 303z"/>
<path style="fill:#f8b17d; stroke:none;" d="M339 303L340 304L339 303z"/>
<path style="fill:#f2b0c3; stroke:none;" d="M85 304L86 305L85 304z"/>
<path style="fill:#f0acc0; stroke:none;" d="M126 304L127 305L126 304z"/>
<path style="fill:#f8bb8c; stroke:none;" d="M296 304L297 305L296 304z"/>
<path style="fill:#f79b58; stroke:none;" d="M210 305L210 308C210.696 306.446 210.696 306.554 210 305z"/>
<path style="fill:#fcd6bc; stroke:none;" d="M256 305L257 306L256 305z"/>
<path style="fill:#f9bb8d; stroke:none;" d="M311 305L312 306L311 305z"/>
<path style="fill:#f1abbf; stroke:none;" d="M60 306L61 307L60 306z"/>
<path style="fill:#e97a99; stroke:none;" d="M102 306L103 307L102 306z"/>
<path style="fill:#f1b4c6; stroke:none;" d="M141 306L142 307L141 306z"/>
<path style="fill:#f0afc3; stroke:none;" d="M187 306L187 309C187.696 307.446 187.696 307.554 187 306z"/>
<path style="fill:#f69b58; stroke:none;" d="M270 306L271 307L270 306z"/>
<path style="fill:#ea86a3; stroke:none;" d="M61 307L62 308L61 307z"/>
<path style="fill:#ed97af; stroke:none;" d="M87 307L88 308L87 307z"/>
<path style="fill:#e25279; stroke:none;" d="M127 307L128 308L127 307z"/>
<path style="fill:#f8b17e; stroke:none;" d="M255 307L256 308L255 307z"/>
<path style="fill:#fbc197; stroke:none;" d="M294 307L295 308L294 307z"/>
<path style="fill:#e56389; stroke:none;" d="M62 308L63 309L62 308z"/>
<path style="fill:#e77192; stroke:none;" d="M142 308L143 309L142 308z"/>
<path style="fill:#f8b686; stroke:none;" d="M269 308L270 309L269 308z"/>
<path style="fill:#f9ad78; stroke:none;" d="M309 308L310 309L309 308z"/>
<path style="fill:#ea87a3; stroke:none;" d="M104 309L105 310L104 309z"/>
<path style="fill:#ea83a0; stroke:none;" d="M128 309L129 310L128 309z"/>
<path style="fill:#eb88a3; stroke:none;" d="M187 309L187 312C187.696 310.446 187.696 310.554 187 309z"/>
<path style="fill:#fbd3b6; stroke:none;" d="M334 309L335 310L334 309z"/>
<path style="fill:#e982a0; stroke:none;" d="M89 310L90 311L89 310z"/>
<path style="fill:#f36a07; stroke:none;" d="M210 310L210 325C211.74 320.852 211.74 314.148 210 310z"/>
<path style="fill:#fac8a3; stroke:none;" d="M254 310L255 311L254 310z"/>
<path style="fill:#fbd2b6; stroke:none;" d="M268 310L269 311L268 310z"/>
<path style="fill:#facaa6; stroke:none;" d="M292 310L293 311L292 310z"/>
<path style="fill:#fac7a1; stroke:none;" d="M333 310L334 311L333 310z"/>
<path style="fill:#f3b4c5; stroke:none;" d="M129 311L130 312L129 311z"/>
<path style="fill:#ec90ab; stroke:none;" d="M143 311L144 312L143 311z"/>
<path style="fill:#f79e5f; stroke:none;" d="M307 311L308 312L307 311z"/>
<path style="fill:#f8b17d; stroke:none;" d="M332 311L333 312L332 311z"/>
<path style="fill:#ee9ab2; stroke:none;" d="M106 312L107 313L106 312z"/>
<path style="fill:#de426e; stroke:none;" d="M187 312L187 324C188.512 320.396 188.512 315.604 187 312z"/>
<path style="fill:#fad6ba; stroke:none;" d="M306 312L307 313L306 312z"/>
<path style="fill:#e66a8d; stroke:none;" d="M91 313L92 314L91 313z"/>
<path style="fill:#fbd4b8; stroke:none;" d="M253 313L254 314L253 313z"/>
<path style="fill:#f8ab75; stroke:none;" d="M267 313L268 314L267 313z"/>
<path style="fill:#fbd2b6; stroke:none;" d="M290 313L291 314L290 313z"/>
<path style="fill:#f3bdcd; stroke:none;" d="M67 314L68 315L67 314z"/>
<path style="fill:#f4c6d3; stroke:none;" d="M92 314L93 315L92 314z"/>
<path style="fill:#e87696; stroke:none;" d="M130 314L131 315L130 314z"/>
<path style="fill:#f0a2b8; stroke:none;" d="M144 314L145 315L144 314z"/>
<path style="fill:#f79e5f; stroke:none;" d="M289 314L290 315L289 314z"/>
<path style="fill:#f2a9bd; stroke:none;" d="M68 315L69 316L68 315z"/>
<path style="fill:#efa7bc; stroke:none;" d="M108 315L109 316L108 315z"/>
<path style="fill:#f79f61; stroke:none;" d="M252 315L253 316L252 315z"/>
<path style="fill:#fad0b1; stroke:none;" d="M266 315L267 316L266 315z"/>
<path style="fill:#fbccab; stroke:none;" d="M304 315L305 316L304 315z"/>
<path style="fill:#ed96b0; stroke:none;" d="M69 316L70 317L69 316z"/>
<path style="fill:#e45981; stroke:none;" d="M93 316L94 317L93 316z"/>
<path style="fill:#f4bbcb; stroke:none;" d="M131 316L132 317L131 316z"/>
<path style="fill:#e87c9b; stroke:none;" d="M70 317L71 318L70 317z"/>
<path style="fill:#f1b6c7; stroke:none;" d="M94 317L95 318L94 317z"/>
<path style="fill:#f0abbf; stroke:none;" d="M145 317L146 318L145 317z"/>
<path style="fill:#f7a66a; stroke:none;" d="M287 317L288 318L287 317z"/>
<path style="fill:#e45e84; stroke:none;" d="M71 318L72 319L71 318z"/>
<path style="fill:#f3baca; stroke:none;" d="M110 318L111 319L110 318z"/>
<path style="fill:#f8a66b; stroke:none;" d="M251 318L252 319L251 318z"/>
<path style="fill:#f9b281; stroke:none;" d="M265 318L266 319L265 318z"/>
<path style="fill:#fabc92; stroke:none;" d="M302 318L303 319L302 318z"/>
<path style="fill:#e35d83; stroke:none;" d="M111 319L112 320L111 319z"/>
<path style="fill:#ea8ca6; stroke:none;" d="M132 319L133 320L132 319z"/>
<path style="fill:#e24d77; stroke:none;" d="M146 319L147 320L146 319z"/>
<path style="fill:#fbd9c0; stroke:none;" d="M251 319L252 320L251 319z"/>
<path style="fill:#fcd9c0; stroke:none;" d="M325 319L326 320L325 319z"/>
<path style="fill:#efa1b8; stroke:none;" d="M96 320L97 321L96 320z"/>
<path style="fill:#f0a9bd; stroke:none;" d="M146 320L147 321L146 320z"/>
<path style="fill:#f9b17d; stroke:none;" d="M285 320L286 321L285 320z"/>
<path style="fill:#fbcdac; stroke:none;" d="M324 320L325 321L324 320z"/>
<path style="fill:#f3bdcd; stroke:none;" d="M112 321L113 322L112 321z"/>
<path style="fill:#f7a060; stroke:none;" d="M264 321L265 322L264 321z"/>
<path style="fill:#f9ba8c; stroke:none;" d="M300 321L301 322L300 321z"/>
<path style="fill:#fac39a; stroke:none;" d="M323 321L324 322L323 321z"/>
<path style="fill:#e35e84; stroke:none;" d="M113 322L114 323L113 322z"/>
<path style="fill:#e67092; stroke:none;" d="M133 322L134 323L133 322z"/>
<path style="fill:#fad0b2; stroke:none;" d="M250 322L251 323L250 322z"/>
<path style="fill:#f9b788; stroke:none;" d="M322 322L323 323L322 322z"/>
<path style="fill:#ef9eb4; stroke:none;" d="M98 323L99 324L98 323z"/>
<path style="fill:#ed96ad; stroke:none;" d="M147 323L148 324L147 323z"/>
<path style="fill:#fad1b3; stroke:none;" d="M263 323L264 324L263 323z"/>
<path style="fill:#f8b07d; stroke:none;" d="M283 323L284 324L283 323z"/>
<path style="fill:#f7ae78; stroke:none;" d="M321 323L322 324L321 323z"/>
<path style="fill:#f3c2d0; stroke:none;" d="M114 324L115 325L114 324z"/>
<path style="fill:#f4c2d0; stroke:none;" d="M134 324L135 325L134 324z"/>
<path style="fill:#d70c45; stroke:none;" d="M186 324L185 339C186.95 334.656 187.871 328.46 186 324z"/>
<path style="fill:#ea89a3; stroke:none;" d="M187.333 324.667C187.278 324.722 187.222 325.778 187.667 325.333C187.722 325.278 187.778 324.222 187.333 324.667z"/>
<path style="fill:#f8b280; stroke:none;" d="M298 324L299 325L298 324z"/>
<path style="fill:#e35c82; stroke:none;" d="M115 325L116 326L115 325z"/>
<path style="fill:#e35b81; stroke:none;" d="M134 325L135 326L134 325z"/>
<path style="fill:#fac299; stroke:none;" d="M249 325L250 326L249 325z"/>
<path style="fill:#ec8fab; stroke:none;" d="M100 326L101 327L100 326z"/>
<path style="fill:#e67092; stroke:none;" d="M148 326L149 327L148 326z"/>
<path style="fill:#f0a9be; stroke:none;" d="M187 326L187 329C187.696 327.446 187.696 327.554 187 326z"/>
<path style="fill:#fbc6a1; stroke:none;" d="M262 326L263 327L262 326z"/>
<path style="fill:#f6a56a; stroke:none;" d="M281 326L282 327L281 326z"/>
<path style="fill:#f3b8c9; stroke:none;" d="M79 327L80 328L79 327z"/>
<path style="fill:#f0a8bc; stroke:none;" d="M116 327L117 328L116 327z"/>
<path style="fill:#f4bccc; stroke:none;" d="M135 327L136 328L135 327z"/>
<path style="fill:#f3c2d1; stroke:none;" d="M148 327L149 328L148 327z"/>
<path style="fill:#f79752; stroke:none;" d="M210 327L210 330C210.696 328.446 210.696 328.554 210 327z"/>
<path style="fill:#f8b583; stroke:none;" d="M296 327L297 328L296 327z"/>
<path style="fill:#f1a9be; stroke:none;" d="M80 328L81 329L80 328z"/>
<path style="fill:#e45f83; stroke:none;" d="M135 328L136 329L135 328z"/>
<path style="fill:#f8a66e; stroke:none;" d="M248 328L249 329L248 328z"/>
<path style="fill:#fbd5b8; stroke:none;" d="M280 328L281 329L280 328z"/>
<path style="fill:#ee9eb5; stroke:none;" d="M81 329L82 330L81 329M102 329L103 330L102 329z"/>
<path style="fill:#faccac; stroke:none;" d="M261 329L262 330L261 329z"/>
<path style="fill:#ec8ca7; stroke:none;" d="M82 330L83 331L82 330z"/>
<path style="fill:#e87c9b; stroke:none;" d="M118 330L119 331L118 330z"/>
<path style="fill:#f5c1cf; stroke:none;" d="M136 330L137 331L136 330z"/>
<path style="fill:#eb8ba5; stroke:none;" d="M149 330L150 331L149 330z"/>
<path style="fill:#fbcaa7; stroke:none;" d="M210 330L210 333C210.696 331.446 210.696 331.554 210 330z"/>
<path style="fill:#fab787; stroke:none;" d="M294 330L295 331L294 330z"/>
<path style="fill:#e87696; stroke:none;" d="M83 331L84 332L83 331z"/>
<path style="fill:#e56287; stroke:none;" d="M136 331L137 332L136 331z"/>
<path style="fill:#f8b684; stroke:none;" d="M278 331L279 332L278 331z"/>
<path style="fill:#e25c81; stroke:none;" d="M84 332L85 333L84 332z"/>
<path style="fill:#efa6bc; stroke:none;" d="M104 332L105 333L104 332z"/>
<path style="fill:#f3baca; stroke:none;" d="M119 332L120 333L119 332z"/>
<path style="fill:#f8af7a; stroke:none;" d="M247 332L248 333L247 332z"/>
<path style="fill:#fbd1b2; stroke:none;" d="M260 332L261 333L260 332z"/>
<path style="fill:#e46388; stroke:none;" d="M186.333 333.667C186.278 333.722 186.222 334.778 186.667 334.333C186.722 334.278 186.778 333.222 186.333 333.667z"/>
<path style="fill:#f79e5d; stroke:none;" d="M260 333L261 334L260 333z"/>
<path style="fill:#fbd7bd; stroke:none;" d="M277 333L278 334L277 333z"/>
<path style="fill:#fabe95; stroke:none;" d="M292 333L293 334L292 333z"/>
<path style="fill:#e2537d; stroke:none;" d="M105 334L106 335L105 334z"/>
<path style="fill:#ea819e; stroke:none;" d="M137 334L138 335L137 334z"/>
<path style="fill:#eb8aa6; stroke:none;" d="M150 334L151 335L150 334z"/>
<path style="fill:#fbcaa9; stroke:none;" d="M311 334L312 335L311 334z"/>
<path style="fill:#f4bccc; stroke:none;" d="M106 335L107 336L106 335z"/>
<path style="fill:#e66c8f; stroke:none;" d="M121 335L122 336L121 335z"/>
<path style="fill:#f3bacb; stroke:none;" d="M186.333 335.667C186.278 335.722 186.222 336.778 186.667 336.333C186.722 336.278 186.778 335.222 186.333 335.667z"/>
<path style="fill:#fabf95; stroke:none;" d="M310 335L311 336L310 335z"/>
<path style="fill:#f8ac75; stroke:none;" d="M211.333 336.667C211.278 336.722 211.222 337.778 211.667 337.333C211.722 337.278 211.778 336.222 211.333 336.667z"/>
<path style="fill:#f9c69f; stroke:none;" d="M246.333 336.667C246.278 336.722 246.222 337.778 246.667 337.333C246.722 337.278 246.778 336.222 246.333 336.667z"/>
<path style="fill:#f9b683; stroke:none;" d="M259 336L260 337L259 336z"/>
<path style="fill:#f8aa73; stroke:none;" d="M275 336L276 337L275 336z"/>
<path style="fill:#facfb1; stroke:none;" d="M290 336L291 337L290 336z"/>
<path style="fill:#f8b686; stroke:none;" d="M309 336L310 337L309 336z"/>
<path style="fill:#e6688c; stroke:none;" d="M107 337L108 338L107 337z"/>
<path style="fill:#ec93ac; stroke:none;" d="M122 337L123 338L122 337z"/>
<path style="fill:#efa4b9; stroke:none;" d="M138 337L139 338L138 337z"/>
<path style="fill:#f8ac76; stroke:none;" d="M308 337L309 338L308 337z"/>
<path style="fill:#ef9fb6; stroke:none;" d="M151.333 338.667C151.278 338.722 151.222 339.778 151.667 339.333C151.722 339.278 151.778 338.222 151.333 338.667z"/>
<path style="fill:#fdeadd; stroke:none;" d="M211.333 338.667C211.278 338.722 211.222 339.778 211.667 339.333C211.722 339.278 211.778 338.222 211.333 338.667z"/>
<path style="fill:#f8b989; stroke:none;" d="M274 338L275 339L274 338z"/>
<path style="fill:#f6a163; stroke:none;" d="M289 338L290 339L289 338z"/>
<path style="fill:#f0a9bd; stroke:none;" d="M123 339L124 340L123 339z"/>
<path style="fill:#e77493; stroke:none;" d="M185.333 339.667C185.278 339.722 185.222 340.778 185.667 340.333C185.722 340.278 185.778 339.222 185.333 339.667z"/>
<path style="fill:#fbd2b5; stroke:none;" d="M258 339L259 340L258 339z"/>
<path style="fill:#f4c0cf; stroke:none;" d="M91 340L92 341L91 340z"/>
<path style="fill:#ec94ae; stroke:none;" d="M109 340L110 341L109 340z"/>
<path style="fill:#f6a76e; stroke:none;" d="M258 340L259 341L258 340z"/>
<path style="fill:#fac6a1; stroke:none;" d="M273 340L274 341L273 340z"/>
<path style="fill:#efa6bb; stroke:none;" d="M92 341L93 342L92 341z"/>
<path style="fill:#f4bfce; stroke:none;" d="M124 341L125 342L124 341z"/>
<path style="fill:#ee98b0; stroke:none;" d="M139 341L140 342L139 341z"/>
<path style="fill:#f9c59e; stroke:none;" d="M245.333 341.667C245.278 341.722 245.222 342.778 245.667 342.333C245.722 342.278 245.778 341.222 245.333 341.667z"/>
<path style="fill:#fabc90; stroke:none;" d="M287 341L288 342L287 341z"/>
<path style="fill:#ed8eaa; stroke:none;" d="M93 342L94 343L93 342z"/>
<path style="fill:#e3567f; stroke:none;" d="M110 342L111 343L110 342z"/>
<path style="fill:#e2567d; stroke:none;" d="M139 342L140 343L139 342z"/>
<path style="fill:#e3547c; stroke:none;" d="M152.333 342.667C152.278 342.722 152.222 343.778 152.667 343.333C152.722 343.278 152.778 342.222 152.333 342.667z"/>
<path style="fill:#f7ae79; stroke:none;" d="M212 342L213 343L212 342z"/>
<path style="fill:#fbcdab; stroke:none;" d="M272 342L273 343L272 342z"/>
<path style="fill:#ea7e9c; stroke:none;" d="M94 343L95 344L94 343z"/>
<path style="fill:#f5c3d2; stroke:none;" d="M125 343L126 344L125 343z"/>
<path style="fill:#f7ae7b; stroke:none;" d="M257.333 343.667C257.278 343.722 257.222 344.778 257.667 344.333C257.722 344.278 257.778 343.222 257.333 343.667z"/>
<path style="fill:#e35d84; stroke:none;" d="M95 344L96 345L95 344z"/>
<path style="fill:#f3b3c5; stroke:none;" d="M152.333 344.667C152.278 344.722 152.222 345.778 152.667 345.333C152.722 345.278 152.778 344.222 152.333 344.667z"/>
<path style="fill:#d5053f; stroke:none;" d="M153 344L153 348C153.71 346.241 153.71 345.759 153 344z"/>
<path style="fill:#e45f85; stroke:none;" d="M184 344L185 345L184 344z"/>
<path style="fill:#fbd5b8; stroke:none;" d="M271 344L272 345L271 344z"/>
<path style="fill:#ee93ad; stroke:none;" d="M112 345L113 346L112 345z"/>
<path style="fill:#f5c2d0; stroke:none;" d="M126 345L127 346L126 345z"/>
<path style="fill:#f2aec0; stroke:none;" d="M140 345L141 346L140 345z"/>
<path style="fill:#efa2b6; stroke:none;" d="M184 345L185 346L184 345z"/>
<path style="fill:#fbd3b5; stroke:none;" d="M301 345L302 346L301 345z"/>
<path style="fill:#e77394; stroke:none;" d="M140 346L141 347L140 346z"/>
<path style="fill:#f8ae7a; stroke:none;" d="M213 346L214 347L213 346z"/>
<path style="fill:#f6a262; stroke:none;" d="M244.333 346.667C244.278 346.722 244.222 347.778 244.667 347.333C244.722 347.278 244.778 346.222 244.333 346.667z"/>
<path style="fill:#facba9; stroke:none;" d="M270 346L271 347L270 346z"/>
<path style="fill:#fac096; stroke:none;" d="M284 346L285 347L284 346z"/>
<path style="fill:#fabf95; stroke:none;" d="M300 346L301 347L300 346z"/>
<path style="fill:#e46085; stroke:none;" d="M113 347L114 348L113 347z"/>
<path style="fill:#f2b3c5; stroke:none;" d="M127 347L128 348L127 347z"/>
<path style="fill:#f8ad76; stroke:none;" d="M299 347L300 348L299 347z"/>
<path style="fill:#e77192; stroke:none;" d="M183 348L184 349L183 348z"/>
<path style="fill:#fcd2b4; stroke:none;" d="M244 348L244 351C244.696 349.446 244.696 349.554 244 348z"/>
<path style="fill:#f9cba9; stroke:none;" d="M256 348L257 349L256 348z"/>
<path style="fill:#f9bf94; stroke:none;" d="M269 348L270 349L269 348z"/>
<path style="fill:#f6a264; stroke:none;" d="M283 348L284 349L283 348z"/>
<path style="fill:#ed98b0; stroke:none;" d="M128 349L129 350L128 349z"/>
<path style="fill:#f3b5c5; stroke:none;" d="M141.333 349.667C141.278 349.722 141.222 350.778 141.667 350.333C141.722 350.278 141.778 349.222 141.333 349.667z"/>
<path style="fill:#e3567e; stroke:none;" d="M153.333 349.667C153.278 349.722 153.222 350.778 153.667 350.333C153.722 350.278 153.778 349.222 153.333 349.667z"/>
<path style="fill:#d4013b; stroke:none;" d="M154 349L154 362C155.591 358.209 155.591 352.791 154 349z"/>
<path style="fill:#f0acbf; stroke:none;" d="M100 350L101 351L100 350z"/>
<path style="fill:#f3b6c8; stroke:none;" d="M115 350L116 351L115 350z"/>
<path style="fill:#faccad; stroke:none;" d="M214 350L215 351L214 350z"/>
<path style="fill:#f7b17d; stroke:none;" d="M268 350L269 351L268 350z"/>
<path style="fill:#eb86a4; stroke:none;" d="M101 351L102 352L101 351z"/>
<path style="fill:#e97c9b; stroke:none;" d="M129 351L130 352L129 351z"/>
<path style="fill:#e0527a; stroke:none;" d="M141.333 351.667C141.278 351.722 141.222 352.778 141.667 352.333C141.722 352.278 141.778 351.222 141.333 351.667z"/>
<path style="fill:#f0a5bb; stroke:none;" d="M153.333 351.667C153.278 351.722 153.222 352.778 153.667 352.333C153.722 352.278 153.778 351.222 153.333 351.667z"/>
<path style="fill:#e55a82; stroke:none;" d="M182 351L183 352L182 351z"/>
<path style="fill:#e56286; stroke:none;" d="M102 352L103 353L102 352z"/>
<path style="fill:#ee9bb2; stroke:none;" d="M116 352L117 353L116 352z"/>
<path style="fill:#f3bccc; stroke:none;" d="M182 352L183 353L182 352z"/>
<path style="fill:#f59550; stroke:none;" d="M267 352L268 353L267 352z"/>
<path style="fill:#f6cad7; stroke:none;" d="M153.333 353.667C153.278 353.722 153.222 354.778 153.667 354.333C153.722 354.278 153.778 353.222 153.333 353.667z"/>
<path style="fill:#faccac; stroke:none;" d="M215 353L216 354L215 353z"/>
<path style="fill:#f9c6a0; stroke:none;" d="M255.333 353.667C255.278 353.722 255.222 354.778 255.667 354.333C255.722 354.278 255.778 353.222 255.333 353.667z"/>
<path style="fill:#faccaa; stroke:none;" d="M280 353L281 354L280 353z"/>
<path style="fill:#facaa6; stroke:none;" d="M294 353L295 354L294 353z"/>
<path style="fill:#eb89a5; stroke:none;" d="M117 354L118 355L117 354z"/>
<path style="fill:#f5c3d0; stroke:none;" d="M130 354L131 355L130 354z"/>
<path style="fill:#e56589; stroke:none;" d="M181 354L182 355L181 354z"/>
<path style="fill:#f8a062; stroke:none;" d="M243 354L243 359C243.83 356.969 243.83 356.03 243 354z"/>
<path style="fill:#f7b07a; stroke:none;" d="M293 354L294 355L293 354z"/>
<path style="fill:#f69e5e; stroke:none;" d="M216 355L217 356L216 355z"/>
<path style="fill:#f59955; stroke:none;" d="M255.333 355.667C255.278 355.722 255.222 356.778 255.667 356.333C255.722 356.278 255.778 355.222 255.333 355.667z"/>
<path style="fill:#fabf93; stroke:none;" d="M266 355L267 356L266 355z"/>
<path style="fill:#f9c29a; stroke:none;" d="M279 355L280 356L279 355z"/>
<path style="fill:#f4c1d0; stroke:none;" d="M105 356L106 357L105 356z"/>
<path style="fill:#e77897; stroke:none;" d="M118 356L119 357L118 356z"/>
<path style="fill:#ea87a4; stroke:none;" d="M131 356L132 357L131 356z"/>
<path style="fill:#f0a5b9; stroke:none;" d="M142 356L142 359C142.696 357.446 142.696 357.554 142 356z"/>
<path style="fill:#eb87a4; stroke:none;" d="M106 357L107 358L106 357z"/>
<path style="fill:#ec96ae; stroke:none;" d="M180 357L181 358L180 357z"/>
<path style="fill:#f9bb8d; stroke:none;" d="M278 357L279 358L278 357z"/>
<path style="fill:#e35b82; stroke:none;" d="M107 358L108 359L107 358z"/>
<path style="fill:#e97a99; stroke:none;" d="M119 358L120 359L119 358z"/>
<path style="fill:#fac197; stroke:none;" d="M217 358L218 359L217 358z"/>
<path style="fill:#f46d0f; stroke:none;" d="M255 358L255 380C257.219 374.713 257.219 363.287 255 358z"/>
<path style="fill:#fbd5b9; stroke:none;" d="M265 358L266 359L265 358z"/>
<path style="fill:#f0aabe; stroke:none;" d="M132 359L133 360L132 359z"/>
<path style="fill:#e04a75; stroke:none;" d="M142 359L142 362C142.696 360.446 142.696 360.554 142 359z"/>
<path style="fill:#e6668b; stroke:none;" d="M179 359L180 360L179 359z"/>
<path style="fill:#fbcaa9; stroke:none;" d="M243 359L243 368C244.256 365.006 244.256 361.994 243 359z"/>
<path style="fill:#f8bc91; stroke:none;" d="M277 359L278 360L277 359z"/>
<path style="fill:#fac198; stroke:none;" d="M289 359L290 360L289 359z"/>
<path style="fill:#e97d9b; stroke:none;" d="M120 360L121 361L120 360z"/>
<path style="fill:#f8a86e; stroke:none;" d="M218 360L219 361L218 360z"/>
<path style="fill:#f7a469; stroke:none;" d="M264 360L265 361L264 360z"/>
<path style="fill:#f89f60; stroke:none;" d="M288 360L289 361L288 360z"/>
<path style="fill:#f5c2d2; stroke:none;" d="M109 361L110 362L109 361z"/>
<path style="fill:#e2547b; stroke:none;" d="M133 361L134 362L133 361z"/>
<path style="fill:#f9c39a; stroke:none;" d="M254 361L254 367C254.951 364.715 254.951 363.285 254 361z"/>
<path style="fill:#fac59f; stroke:none;" d="M276 361L277 362L276 361z"/>
<path style="fill:#e77d9d; stroke:none;" d="M110 362L111 363L110 362z"/>
<path style="fill:#ec8ea9; stroke:none;" d="M121 362L122 363L121 362z"/>
<path style="fill:#f3b7c8; stroke:none;" d="M133 362L134 363L133 362z"/>
<path style="fill:#d4033e; stroke:none;" d="M142 363L142 375C143.512 371.396 143.512 366.604 142 363z"/>
<path style="fill:#f8a56b; stroke:none;" d="M263 363L264 364L263 363z"/>
<path style="fill:#facead; stroke:none;" d="M275 363L276 364L275 363z"/>
<path style="fill:#fad6bb; stroke:none;" d="M286 363L287 364L286 363z"/>
<path style="fill:#efa0b8; stroke:none;" d="M122 364L123 365L122 364z"/>
<path style="fill:#f79b5a; stroke:none;" d="M220 364L221 365L220 364z"/>
<path style="fill:#f7ab74; stroke:none;" d="M285 364L286 365L285 364z"/>
<path style="fill:#eea1b8; stroke:none;" d="M134 365L135 366L134 365z"/>
<path style="fill:#d50943; stroke:none;" d="M154 365L154 375C155.346 371.793 155.346 368.207 154 365z"/>
<path style="fill:#ea84a1; stroke:none;" d="M113 366L114 367L113 366z"/>
<path style="fill:#f7a366; stroke:none;" d="M221 366L222 367L221 366z"/>
<path style="fill:#e15078; stroke:none;" d="M123 367L124 368L123 367z"/>
<path style="fill:#e3597f; stroke:none;" d="M175 367L176 368L175 367z"/>
<path style="fill:#f9b07e; stroke:none;" d="M254 367L254 372C254.83 369.97 254.83 369.03 254 367z"/>
<path style="fill:#fac7a2; stroke:none;" d="M262 367L263 368L262 367z"/>
<path style="fill:#fbcfb0; stroke:none;" d="M283 367L284 368L283 367z"/>
<path style="fill:#e87395; stroke:none;" d="M135 368L136 369L135 368z"/>
<path style="fill:#f9b17f; stroke:none;" d="M222 368L223 369L222 368z"/>
<path style="fill:#f69f5f; stroke:none;" d="M243 368L243 372C243.71 370.241 243.71 369.759 243 368z"/>
<path style="fill:#f7b27f; stroke:none;" d="M273 368L274 369L273 368z"/>
<path style="fill:#f69d5d; stroke:none;" d="M282 368L283 369L282 368z"/>
<path style="fill:#f3b6c8; stroke:none;" d="M115 369L116 370L115 369z"/>
<path style="fill:#e97d9c; stroke:none;" d="M124 369L125 370L124 369z"/>
<path style="fill:#f3c1cf; stroke:none;" d="M135 369L136 370L135 369z"/>
<path style="fill:#e87e9c; stroke:none;" d="M174 369L175 370L174 369z"/>
<path style="fill:#e25a7f; stroke:none;" d="M116 370L117 371L116 370z"/>
<path style="fill:#fbd1b5; stroke:none;" d="M223 370L224 371L223 370z"/>
<path style="fill:#f7a265; stroke:none;" d="M261 370L262 371L261 370z"/>
<path style="fill:#fbd6bc; stroke:none;" d="M272 370L273 371L272 370z"/>
<path style="fill:#f3c0cf; stroke:none;" d="M125 371L126 372L125 371z"/>
<path style="fill:#f3b9ca; stroke:none;" d="M153 371L153 375C153.71 373.241 153.71 372.759 153 371z"/>
<path style="fill:#f4c1cf; stroke:none;" d="M173 371L174 372L173 371z"/>
<path style="fill:#f9b586; stroke:none;" d="M280 371L281 372L280 371z"/>
<path style="fill:#e2537b; stroke:none;" d="M125 372L126 373L125 372z"/>
<path style="fill:#e87698; stroke:none;" d="M136 372L137 373L136 372z"/>
<path style="fill:#fcd0b3; stroke:none;" d="M254 372L254 377C254.83 374.97 254.83 374.03 254 372z"/>
<path style="fill:#e97c9b; stroke:none;" d="M118 373L119 374L118 373z"/>
<path style="fill:#f9bf95; stroke:none;" d="M225 373L226 374L225 373z"/>
<path style="fill:#fac29b; stroke:none;" d="M271 373L272 374L271 373z"/>
<path style="fill:#f1a9bd; stroke:none;" d="M126 374L127 375L126 374z"/>
<path style="fill:#f0a9bd; stroke:none;" d="M171 374L172 375L171 374z"/>
<path style="fill:#f9c39e; stroke:none;" d="M278 374L279 375L278 374z"/>
<path style="fill:#de426e; stroke:none;" d="M153.333 375.667C153.278 375.722 153.222 376.778 153.667 376.333C153.722 376.278 153.778 375.222 153.333 375.667z"/>
<path style="fill:#facfaf; stroke:none;" d="M244 375L244 378C244.696 376.446 244.696 376.554 244 375z"/>
<path style="fill:#f8b280; stroke:none;" d="M260 375L261 376L260 375z"/>
<path style="fill:#ed8ca8; stroke:none;" d="M120 376L121 377L120 376z"/>
<path style="fill:#df426e; stroke:none;" d="M142 376L142 380C142.71 378.241 142.71 377.759 142 376z"/>
<path style="fill:#facba9; stroke:none;" d="M227 376L228 377L227 376z"/>
<path style="fill:#f9be93; stroke:none;" d="M270 376L271 377L270 376z"/>
<path style="fill:#f1adbf; stroke:none;" d="M127 377L128 378L127 377z"/>
<path style="fill:#ee9bb2; stroke:none;" d="M137.333 377.667C137.278 377.722 137.222 378.778 137.667 378.333C137.722 378.278 137.778 377.222 137.333 377.667z"/>
<path style="fill:#f89d5c; stroke:none;" d="M228 377L229 378L228 377z"/>
<path style="fill:#fbcfae; stroke:none;" d="M276 377L277 378L276 377z"/>
<path style="fill:#e2567d; stroke:none;" d="M127 378L128 379L127 378z"/>
<path style="fill:#ea84a1; stroke:none;" d="M168 378L169 379L168 378M122 379L123 380L122 379z"/>
<path style="fill:#eea1b7; stroke:none;" d="M152.333 379.667C152.278 379.722 152.222 380.778 152.667 380.333C152.722 380.278 152.778 379.222 152.333 379.667z"/>
<path style="fill:#facbaa; stroke:none;" d="M269 379L270 380L269 379z"/>
<path style="fill:#d50440; stroke:none;" d="M141 380L141 384C141.71 382.241 141.71 381.759 141 380z"/>
<path style="fill:#f2b4c5; stroke:none;" d="M142.333 380.667C142.278 380.722 142.222 381.778 142.667 381.333C142.722 381.278 142.778 380.222 142.333 380.667z"/>
<path style="fill:#fbccaa; stroke:none;" d="M230 380L231 381L230 380z"/>
<path style="fill:#f8b585; stroke:none;" d="M259 380L259 383C259.696 381.446 259.696 381.554 259 380z"/>
<path style="fill:#f79c5b; stroke:none;" d="M269 380L270 381L269 380z"/>
<path style="fill:#f9c39b; stroke:none;" d="M274 380L275 381L274 380z"/>
<path style="fill:#e9809d; stroke:none;" d="M128 381L129 382L128 381z"/>
<path style="fill:#dd3867; stroke:none;" d="M152.333 381.667C152.278 381.722 152.222 382.778 152.667 382.333C152.722 382.278 152.778 381.222 152.333 381.667z"/>
<path style="fill:#f8a971; stroke:none;" d="M231 381L232 382L231 381z"/>
<path style="fill:#f8a366; stroke:none;" d="M255.333 381.667C255.278 381.722 255.222 382.778 255.667 382.333C255.722 382.278 255.778 381.222 255.333 381.667z"/>
<path style="fill:#e45e85; stroke:none;" d="M124 382L125 383L124 382z"/>
<path style="fill:#de426e; stroke:none;" d="M138.333 382.667C138.278 382.722 138.222 383.778 138.667 383.333C138.722 383.278 138.778 382.222 138.333 382.667z"/>
<path style="fill:#f2b6c8; stroke:none;" d="M165 382L166 383L165 382z"/>
<path style="fill:#f9c39a; stroke:none;" d="M245 382L246 383L245 382z"/>
<path style="fill:#eb8ba6; stroke:none;" d="M164 383L165 384L164 383z"/>
<path style="fill:#fddac3; stroke:none;" d="M255.333 383.667C255.278 383.722 255.222 384.778 255.667 384.333C255.722 384.278 255.778 383.222 255.333 383.667z"/>
<path style="fill:#f69d5d; stroke:none;" d="M268.333 383.667C268.278 383.722 268.222 384.778 268.667 384.333C268.722 384.278 268.778 383.222 268.333 383.667z"/>
<path style="fill:#f7a56a; stroke:none;" d="M272 383L273 384L272 383z"/>
<path style="fill:#ee9cb3; stroke:none;" d="M125 384L126 385L125 384z"/>
<path style="fill:#eb88a5; stroke:none;" d="M138 384L138 387C138.696 385.446 138.696 385.554 138 384z"/>
<path style="fill:#f5c5d3; stroke:none;" d="M151 384L152 385L151 384z"/>
<path style="fill:#e56a8d; stroke:none;" d="M163 384L164 385L163 384z"/>
<path style="fill:#ed95ad; stroke:none;" d="M129 385L130 386L129 385z"/>
<path style="fill:#ea7e9d; stroke:none;" d="M141.333 385.667C141.278 385.722 141.222 386.778 141.667 386.333C141.722 386.278 141.778 385.222 141.333 385.667z"/>
<path style="fill:#ea83a0; stroke:none;" d="M151 385L152 386L151 385z"/>
<path style="fill:#e2567e; stroke:none;" d="M162 385L163 386L162 385z"/>
<path style="fill:#fac39a; stroke:none;" d="M271 385L272 386L271 385z"/>
<path style="fill:#facdac; stroke:none;" d="M246 386L247 387L246 386z"/>
<path style="fill:#fae0e7; stroke:none;" d="M138 387L138 391C138.71 389.241 138.71 388.759 138 387z"/>
<path style="fill:#d20032; stroke:none;" d="M139 387L139 394C140.222 391.717 140.652 389.572 141 387L139 387z"/>
<path style="fill:#f7a164; stroke:none;" d="M246 387L247 388L246 387z"/>
<path style="fill:#f8b380; stroke:none;" d="M256.333 387.667C256.278 387.722 256.222 388.778 256.667 388.333C256.722 388.278 256.778 387.222 256.333 387.667z"/>
<path style="fill:#f6883a; stroke:none;" d="M258 387C257.67 390.116 257.556 392.891 258 396C259.256 393.006 259.256 389.994 258 387z"/>
<path style="fill:#fac59e; stroke:none;" d="M267.333 387.667C267.278 387.722 267.222 388.778 267.667 388.333C267.722 388.278 267.778 387.222 267.333 387.667z"/>
<path style="fill:#f2baca; stroke:none;" d="M150 388L151 389L150 388z"/>
<path style="fill:#e15079; stroke:none;" d="M128 389L129 390L128 389z"/>
<path style="fill:#e5678b; stroke:none;" d="M150 389L151 390L150 389z"/>
<path style="fill:#f59047; stroke:none;" d="M267 389L267 391L269 391C268.455 389.365 268.635 389.545 267 389z"/>
<path style="fill:#ec91ab; stroke:none;" d="M130.333 390.667C130.278 390.722 130.222 391.778 130.667 391.333C130.722 391.278 130.778 390.222 130.333 390.667z"/>
<path style="fill:#e46186; stroke:none;" d="M140 390L141 391L140 390z"/>
<path style="fill:#f8b88a; stroke:none;" d="M247 390L248 391L247 390z"/>
<path style="fill:#efa6bb; stroke:none;" d="M140 391L141 392L140 391z"/>
<path style="fill:#f3771e; stroke:none;" d="M267.333 391.667C267.278 391.722 267.222 392.778 267.667 392.333C267.722 392.278 267.778 391.222 267.333 391.667z"/>
<path style="fill:#f5c1d1; stroke:none;" d="M129 392L130 393L129 392z"/>
<path style="fill:#e35d81; stroke:none;" d="M130.333 392.667C130.278 392.722 130.222 393.778 130.667 393.333C130.722 393.278 130.778 392.222 130.333 392.667z"/>
<path style="fill:#e9799a; stroke:none;" d="M149 392L150 393L149 392z"/>
<path style="fill:#e5668b; stroke:none;" d="M154 393L155 394L154 393z"/>
<path style="fill:#f9bf93; stroke:none;" d="M248 393L249 394L248 393z"/>
<path style="fill:#fbc097; stroke:none;" d="M267 393L268 394L267 393z"/>
<path style="fill:#f9dfe6; stroke:none;" d="M138 394C138.406 396.092 138.217 396.02 140 397C139.309 395.612 139.015 395.139 138 394z"/>
<path style="fill:#e25379; stroke:none;" d="M139 394L140 395L139 394z"/>
<path style="fill:#e9829f; stroke:none;" d="M153 394L154 395L153 394z"/>
<path style="fill:#f0a3b9; stroke:none;" d="M139 395L140 396L139 395z"/>
<path style="fill:#e66e8f; stroke:none;" d="M148 395L149 396L148 395z"/>
<path style="fill:#f2b4c7; stroke:none;" d="M152 395L153 396L152 395z"/>
<path style="fill:#f79b5a; stroke:none;" d="M245 395L246 396L245 395z"/>
<path style="fill:#f8b583; stroke:none;" d="M246 396L247 397L246 396z"/>
<path style="fill:#f8b07d; stroke:none;" d="M249 396L250 397L249 396z"/>
<path style="fill:#fbd1b3; stroke:none;" d="M258 396L259 397L258 396z"/>
<path style="fill:#f3b8c9; stroke:none;" d="M147 397L148 398L147 397z"/>
<path style="fill:#fbd6bb; stroke:none;" d="M247 397L248 398L247 397z"/>
<path style="fill:#e5668a; stroke:none;" d="M147 398L147 400C148.635 399.455 148.455 399.635 149 398L147 398z"/>
<path style="fill:#f9b17f; stroke:none;" d="M250.333 398.667C250.278 398.722 250.222 399.778 250.667 399.333C250.722 399.278 250.778 398.222 250.333 398.667z"/>
</svg>
